<?xml version="1.0" standalone="no"?>
<!DOCTYPE svg PUBLIC "-//W3C//DTD SVG 20010904//EN"
 "http://www.w3.org/TR/2001/REC-SVG-20010904/DTD/svg10.dtd">
<svg version="1.0" xmlns="http://www.w3.org/2000/svg"
 width="225.000000pt" height="225.000000pt" viewBox="0 0 225.000000 225.000000"
 preserveAspectRatio="xMidYMid meet">

<g transform="translate(0.000000,225.000000) scale(0.100000,-0.100000)"
fill="#000000" stroke="none">
<path d="M1098 1963 c-47 -54 28 -127 75 -75 22 24 21 55 -1 75 -24 22 -55 22
-74 0z m32 -13 c0 -5 -2 -10 -4 -10 -3 0 -8 5 -11 10 -3 6 -1 10 4 10 6 0 11
-4 11 -10z m-23 -32 c-3 -8 -6 -5 -6 6 -1 11 2 17 5 13 3 -3 4 -12 1 -19z m40
0 c-3 -8 -6 -5 -6 6 -1 11 2 17 5 13 3 -3 4 -12 1 -19z m27 -12 c-3 -8 -12
-17 -20 -20 -19 -7 -45 4 -38 16 4 6 10 5 16 -3 7 -12 11 -11 21 4 14 21 29
23 21 3z"/>
<path d="M1077 1834 c-14 -15 7 -24 54 -24 31 0 48 4 44 10 -3 6 1 7 9 4 9 -3
16 -1 16 5 0 16 -87 14 -93 -1 -4 -10 -6 -10 -6 0 -1 13 -14 16 -24 6z"/>
<path d="M1030 1775 c-18 -22 1 -26 111 -23 76 2 94 6 94 18 0 22 -186 27
-205 5z"/>
<path d="M977 1723 c-10 -3 -17 -12 -15 -21 3 -15 23 -17 166 -20 142 -2 163
0 169 14 3 9 0 20 -8 24 -13 9 -278 11 -312 3z m57 -18 c-4 -8 -8 -15 -10 -15
-2 0 -4 7 -4 15 0 8 4 15 10 15 5 0 7 -7 4 -15z m83 9 c-3 -3 -12 -4 -19 -1
-8 3 -5 6 6 6 11 1 17 -2 13 -5z m163 -4 c13 -8 13 -10 -2 -10 -9 0 -20 5 -23
10 -8 13 5 13 25 0z"/>
<path d="M793 1644 c3 -5 -8 -9 -24 -10 -39 -1 -101 -35 -94 -51 2 -7 0 -13
-5 -13 -6 0 -10 4 -10 10 0 5 -16 2 -35 -7 -20 -9 -34 -22 -32 -27 5 -17 70
-45 89 -40 9 3 19 0 23 -6 3 -6 11 -7 17 -4 7 4 8 2 4 -5 -6 -9 -11 -9 -22 0
-8 6 -17 9 -20 6 -3 -3 5 -11 18 -18 12 -7 28 -19 34 -27 7 -10 13 -11 18 -4
3 6 2 13 -4 17 -5 3 -10 11 -10 18 0 6 6 2 14 -9 10 -13 11 -23 4 -31 -7 -9
-5 -17 7 -29 9 -10 21 -28 26 -41 4 -12 13 -23 19 -23 12 0 12 38 -1 65 -7 16
-8 14 -4 -9 6 -26 4 -28 -10 -16 -9 7 -14 19 -11 27 4 9 1 11 -5 7 -7 -4 -10
-1 -7 7 3 8 12 13 19 11 8 -1 -12 22 -45 53 -36 34 -56 60 -53 69 8 19 110 40
156 31 20 -4 46 -16 58 -27 20 -19 50 -17 38 3 -4 5 -1 9 4 9 14 0 14 -13 0
-27 -7 -7 -3 -21 12 -48 14 -23 26 -65 30 -109 12 -108 20 -150 32 -164 5 -7
7 -15 3 -19 -3 -3 -6 -1 -6 5 0 7 -4 12 -10 12 -5 0 -10 -6 -10 -14 0 -21 38
-27 51 -8 8 13 9 13 6 2 -2 -8 10 -26 27 -40 16 -14 27 -20 23 -13 -4 6 -2 15
4 19 8 5 10 -1 7 -19 -5 -25 11 -51 37 -59 6 -2 9 -6 7 -11 -1 -4 1 -6 5 -5
14 4 53 -22 53 -35 0 -7 -4 -6 -10 3 -5 8 -10 10 -10 4 0 -6 11 -21 24 -33 18
-17 26 -19 31 -10 6 8 4 10 -5 4 -9 -6 -11 -4 -5 5 6 9 4 11 -5 5 -9 -6 -11
-4 -5 5 6 9 4 11 -6 5 -11 -7 -12 -6 -2 6 10 12 10 18 0 29 -10 12 -9 12 5 1
10 -7 16 -17 13 -21 -3 -4 2 -13 10 -20 10 -8 12 -17 5 -30 -6 -10 -5 -21 0
-26 12 -12 30 -105 20 -99 -10 6 -22 -24 -15 -35 3 -5 1 -12 -5 -15 -8 -5 -7
-12 2 -23 8 -10 8 -13 1 -9 -6 4 -14 1 -17 -5 -2 -7 -4 -4 -3 7 2 11 7 27 12
35 9 16 -91 -72 -112 -98 -7 -9 -13 -12 -13 -8 0 14 -82 -57 -101 -88 -11 -17
-19 -43 -19 -57 0 -39 28 -99 46 -99 12 0 14 8 9 44 -5 31 -2 52 9 75 16 30
141 141 159 141 5 0 6 7 3 16 -3 9 -2 12 5 9 14 -10 47 23 71 69 16 31 19 51
15 89 -9 69 -45 124 -133 204 -55 50 -83 83 -102 125 -25 54 -51 81 -37 39 3
-10 -1 -24 -10 -31 -12 -10 -15 -9 -15 7 0 10 7 28 14 39 13 18 13 31 1 102
-23 131 -47 172 -125 212 -39 20 -136 38 -127 24z m64 -20 c-3 -3 -12 -4 -19
-1 -8 3 -5 6 6 6 11 1 17 -2 13 -5z m47 -16 c-5 -7 -2 -9 8 -6 9 4 15 0 15 -8
0 -17 -9 -18 -25 -2 -15 15 -15 28 -1 28 5 0 7 -5 3 -12z m-204 -18 c0 -5 -5
-10 -11 -10 -5 0 -7 5 -4 10 3 6 8 10 11 10 2 0 4 -4 4 -10z m-60 -35 c-14
-17 -30 -20 -30 -6 0 5 8 12 18 14 9 3 19 5 21 6 2 0 -2 -6 -9 -14z m35 -25
c-3 -5 -12 -10 -18 -10 -7 0 -6 4 3 10 19 12 23 12 15 0z m307 -12 c-7 -7 -12
-8 -12 -2 0 14 12 26 19 19 2 -3 -1 -11 -7 -17z m36 -83 c-3 -3 -9 2 -12 12
-6 14 -5 15 5 6 7 -7 10 -15 7 -18z m65 -188 c3 -8 -1 -14 -8 -14 -7 0 -11 6
-8 14 3 7 6 13 8 13 2 0 5 -6 8 -13z m8 -64 c13 -16 12 -17 -3 -4 -10 7 -18
15 -18 17 0 8 8 3 21 -13z m58 -49 c-14 -18 -24 -11 -15 11 3 9 11 13 16 10 8
-5 7 -11 -1 -21z m55 -43 c-2 -3 -12 3 -22 13 -16 17 -16 18 5 5 12 -7 20 -15
17 -18z m94 -116 c0 -30 0 -30 -23 -5 -18 20 -18 21 0 14 15 -6 17 -4 12 10
-4 9 -3 15 2 12 5 -3 9 -17 9 -31z m19 -57 c-3 -8 -6 -5 -6 6 -1 11 2 17 5 13
3 -3 4 -12 1 -19z m-117 -188 c-13 -10 -29 -18 -35 -17 -5 1 -9 -4 -7 -11 1
-8 -2 -11 -8 -7 -5 3 -10 0 -10 -7 0 -8 -5 -6 -11 5 -6 10 -8 21 -5 24 3 4 6
1 6 -7 0 -10 3 -10 15 0 8 7 12 16 9 21 -3 5 -1 9 5 9 5 0 11 -5 13 -11 2 -5
12 -2 23 9 11 11 22 17 25 15 3 -2 -6 -13 -20 -23z m-92 -67 c-6 -8 -19 -11
-29 -8 -12 4 -19 1 -19 -6 0 -7 -3 -9 -7 -5 -4 4 6 18 22 30 31 25 55 16 33
-11z m-47 -57 c6 3 3 -9 -6 -27 -20 -38 -30 -52 -23 -29 3 8 1 24 -5 35 -9 18
-9 19 6 6 10 -8 17 -9 17 -3 0 6 -4 14 -10 17 -5 3 -10 12 -10 18 0 7 5 4 11
-6 6 -9 15 -15 20 -11z"/>
<path d="M1085 670 c-3 -5 -2 -10 4 -10 5 0 13 5 16 10 3 6 2 10 -4 10 -5 0
-13 -4 -16 -10z"/>
<path d="M1360 1639 c-47 -14 -123 -77 -116 -96 3 -8 1 -11 -4 -8 -13 8 -47
-62 -55 -116 -7 -44 12 -134 35 -169 9 -13 12 -13 23 2 12 15 15 15 37 -3 l25
-18 -25 4 c-59 10 -56 -8 17 -119 38 -58 73 -103 78 -98 5 4 5 1 1 -6 -5 -8
-1 -19 10 -27 12 -9 14 -14 6 -15 -8 0 -10 -8 -7 -23 9 -34 -13 -117 -40 -153
-19 -25 -21 -34 -12 -45 10 -11 9 -10 -6 1 -14 10 -21 10 -30 1 -9 -9 -9 -14
3 -21 9 -6 10 -10 3 -10 -6 0 -20 -3 -30 -7 -16 -6 -17 -5 -3 12 9 11 -4 6
-32 -13 -55 -38 -91 -80 -83 -99 2 -8 1 -12 -4 -9 -5 3 -8 -6 -8 -19 0 -26 11
-33 23 -13 5 7 2 9 -7 4 -8 -4 -6 -1 5 8 10 8 15 20 11 26 -3 6 -3 10 2 8 13
-3 85 71 78 82 -3 5 0 7 9 4 22 -8 90 31 118 68 50 66 61 149 32 234 -17 52
-93 176 -103 170 -4 -3 -5 13 -3 35 4 33 1 40 -21 50 -32 14 -62 103 -52 151
10 49 51 114 91 144 61 47 173 43 245 -7 33 -23 44 -13 23 19 -12 18 -12 23
-3 17 8 -3 4 3 -9 14 -43 38 -160 59 -222 40z m77 -35 c-3 -3 -12 -4 -19 -1
-8 3 -5 6 6 6 11 1 17 -2 13 -5z m40 0 c-3 -3 -12 -4 -19 -1 -8 3 -5 6 6 6 11
1 17 -2 13 -5z m78 -17 c-11 -6 -21 -5 -28 3 -9 8 -7 9 7 4 13 -5 17 -4 12 4
-5 8 -2 10 10 5 15 -6 15 -7 -1 -16z m-250 -17 c8 -13 -5 -13 -25 0 -13 8 -13
10 2 10 9 0 20 -4 23 -10z m-27 -44 c-15 -30 -16 -30 -14 -3 0 13 6 24 13 24
9 0 9 -6 1 -21z m-53 -65 c-9 -16 -25 -3 -18 15 4 10 9 12 15 6 6 -6 7 -15 3
-21z m-8 -73 c-3 -8 -6 -5 -6 6 -1 11 2 17 5 13 3 -3 4 -12 1 -19z m-12 -28
c3 -5 1 -10 -4 -10 -6 0 -11 5 -11 10 0 6 2 10 4 10 3 0 8 -4 11 -10z m18 -35
c-3 -9 -8 -14 -10 -11 -3 3 -2 9 2 15 9 16 15 13 8 -4z m4 -47 c2 -17 0 -19
-7 -8 -5 8 -6 18 -4 22 8 12 10 10 11 -14z m48 -72 c7 3 16 1 20 -5 3 -7 0 -8
-9 -5 -9 3 -16 1 -16 -5 0 -6 5 -11 12 -11 6 0 8 -3 4 -7 -8 -9 -36 25 -35 41
0 6 3 6 5 -1 3 -7 11 -10 19 -7z m48 -59 c4 3 7 4 7 1 0 -3 -6 -11 -14 -17
-11 -9 -15 -7 -19 9 -4 16 -2 19 7 11 7 -6 16 -8 19 -4z m27 -58 c0 -5 -5 -9
-12 -9 -6 0 -8 3 -5 7 4 3 1 13 -6 22 -11 14 -10 14 6 2 9 -7 17 -17 17 -22z
m20 -19 c0 -5 -5 -10 -11 -10 -5 0 -7 5 -4 10 3 6 8 10 11 10 2 0 4 -4 4 -10z
m20 -30 c0 -5 -2 -10 -4 -10 -3 0 -8 5 -11 10 -3 6 -1 10 4 10 6 0 11 -4 11
-10z m27 -122 c-3 -8 -6 -5 -6 6 -1 11 2 17 5 13 3 -3 4 -12 1 -19z m-7 -83
c0 -5 -5 -3 -10 5 -5 8 -10 20 -10 25 0 6 5 3 10 -5 5 -8 10 -19 10 -25z m-16
-21 c3 -8 2 -12 -4 -9 -6 3 -10 10 -10 16 0 14 7 11 14 -7z m-28 -36 c5 -7 3
-8 -6 -3 -10 6 -12 4 -6 -11 5 -14 4 -16 -5 -7 -6 6 -8 16 -5 22 9 14 13 14
22 -1z m-132 -91 c-3 -8 -12 -14 -21 -14 -13 0 -13 2 3 14 10 7 19 13 21 13 1
0 0 -6 -3 -13z"/>
<path d="M1614 1555 c10 -15 13 -25 8 -21 -14 8 -21 -4 -24 -42 -1 -17 -7 -28
-13 -26 -17 7 -55 -42 -43 -54 7 -7 3 -14 -11 -21 -12 -7 -21 -8 -21 -2 0 5 8
12 18 14 13 4 14 5 1 6 -23 2 -68 -50 -75 -88 -7 -32 -6 -32 64 35 62 61 68
70 54 81 -10 7 -12 13 -6 13 5 0 15 -5 21 -11 17 -17 54 11 47 36 -4 16 -3 17
5 5 8 -12 11 -12 17 4 9 22 -23 87 -46 94 -11 4 -10 -1 4 -23z m7 -66 c-9 -22
-10 -22 -10 -3 -1 11 2 24 6 27 12 12 14 0 4 -24z m-111 -123 c0 -2 -8 -10
-17 -17 -16 -13 -17 -12 -4 4 13 16 21 21 21 13z"/>
<path d="M1086 1541 c-24 -26 -17 -59 16 -79 25 -15 28 -15 47 3 26 23 27 57
3 78 -24 22 -45 21 -66 -2z m30 -8 c-2 -9 -9 -19 -17 -21 -11 -3 -11 -1 1 7 8
6 11 11 7 11 -5 0 -5 5 -2 10 9 15 14 12 11 -7z m10 -60 c-7 -7 -26 7 -26 19
0 6 6 6 15 -2 9 -7 13 -15 11 -17z"/>
<path d="M1072 435 c-18 -14 -20 -19 -9 -35 20 -33 87 -21 87 15 0 7 -11 17
-25 23 -32 15 -26 15 -53 -3z m46 -7 c15 -15 15 -28 1 -28 -5 0 -8 4 -4 9 3 6
-3 14 -12 20 -10 6 -13 11 -7 11 5 0 15 -5 22 -12z m-23 -37 c-2 -2 -11 3 -19
12 -8 8 -12 17 -9 21 3 3 12 -2 19 -12 7 -9 11 -19 9 -21z"/>
<path d="M1112 362 c-20 -13 -3 -42 24 -42 28 0 44 28 23 41 -17 11 -30 11
-47 1z m25 -16 c0 -8 -6 -12 -15 -9 -11 5 -11 7 0 14 7 5 13 9 14 9 0 0 1 -6
1 -14z"/>
<path d="M1141 301 c-18 -12 -5 -31 20 -31 14 0 19 6 17 17 -4 20 -18 26 -37
14z"/>
</g>
</svg>
