<?xml version="1.0" standalone="no"?>
<!DOCTYPE svg PUBLIC "-//W3C//DTD SVG 20010904//EN"
 "http://www.w3.org/TR/2001/REC-SVG-20010904/DTD/svg10.dtd">
<svg version="1.0" xmlns="http://www.w3.org/2000/svg"
 width="225.000000pt" height="225.000000pt" viewBox="0 0 225.000000 225.000000"
 preserveAspectRatio="xMidYMid meet">

<g transform="translate(0.000000,225.000000) scale(0.100000,-0.100000)"
fill="#000000" stroke="none">
<path d="M991 2239 c-449 -52 -832 -384 -949 -824 -107 -400 11 -817 310
-1101 159 -151 333 -242 557 -290 101 -22 338 -23 438 0 228 50 406 147 569
310 165 166 260 340 310 571 23 107 23 331 0 436 -65 302 -232 552 -476 714
-229 153 -487 215 -759 184z m217 -523 c15 -8 36 -24 46 -35 19 -21 19 -26
-12 -402 -29 -359 -32 -383 -53 -405 -31 -33 -97 -33 -128 0 -24 26 -34 94
-66 474 -25 305 -22 334 41 367 36 19 136 20 172 1z m-28 -981 c37 -19 60 -62
60 -111 0 -28 -8 -44 -34 -70 -29 -29 -41 -34 -81 -34 -40 0 -52 5 -81 34 -95
95 16 243 136 181z"/>
</g>
</svg>
