<?xml version="1.0" encoding="UTF-8"?>
<svg version="1.1" xmlns="http://www.w3.org/2000/svg" width="153" height="148">
<path d="M0 0 C50.49 0 100.98 0 153 0 C153 48.84 153 97.68 153 148 C102.51 148 52.02 148 0 148 C0 99.16 0 50.32 0 0 Z " fill="#FBFBFB" transform="translate(0,0)"/>
<path d="M0 0 C50.49 0 100.98 0 153 0 C153 48.84 153 97.68 153 148 C102.51 148 52.02 148 0 148 C0 99.16 0 50.32 0 0 Z M21.61425781 21.12988281 C20.0490391 23.72081932 18.9827261 26.14349187 18 29 C17.63350342 29.67804687 17.26700684 30.35609375 16.8894043 31.0546875 C15.86298811 33.29967356 15.76037453 34.87708527 15.76171875 37.3359375 C15.74560547 38.15320313 15.72949219 38.97046875 15.71289062 39.8125 C15.6960417 41.51294534 15.69072518 43.21354627 15.69726562 44.9140625 C15.56358891 50.39911979 14.8654718 52.1678053 11.0300293 56.23657227 C8.82850796 60.00561437 10.20783836 64.6000018 10.74182129 68.74542236 C11.15530157 72.35619026 11.38872363 75.97798927 11.64373779 79.60287476 C11.94848153 83.93225863 12.28537239 88.25899235 12.61962891 92.58618164 C12.79080545 94.83258733 12.95742406 97.07934469 13.11962891 99.32641602 C13.35699904 102.60274225 13.61049413 105.87748191 13.8671875 109.15234375 C13.93606171 110.15240952 14.00493591 111.15247528 14.07589722 112.18284607 C14.50158963 117.39703266 15.04238329 121.52337779 18 126 C21.16083566 128.10722377 21.90175841 128.25058003 25.50987244 128.25396729 C26.43377274 128.25960693 27.35767303 128.26524658 28.30957031 128.27105713 C29.82683716 128.26498444 29.82683716 128.26498444 31.37475586 128.25878906 C32.44166153 128.2622937 33.5085672 128.26579834 34.60780334 128.26940918 C38.14354918 128.2782299 41.67909579 128.27237563 45.21484375 128.265625 C47.66720112 128.26697165 50.11955822 128.26891218 52.57191467 128.27142334 C57.7158563 128.27437515 62.85972854 128.27007544 68.00366211 128.26074219 C74.60258229 128.24935369 81.20133968 128.25590305 87.80025387 128.26788712 C92.8659437 128.27510925 97.93159485 128.27281604 102.99728584 128.26763153 C105.43059877 128.26629571 107.86391519 128.2679404 110.29722404 128.27259064 C113.69686069 128.27766091 117.0962327 128.26993803 120.49584961 128.25878906 C121.50533661 128.26283752 122.51482361 128.26688599 123.55490112 128.27105713 C124.48162125 128.26541748 125.40834137 128.25977783 126.36314392 128.25396729 C127.56853522 128.25283621 127.56853522 128.25283621 128.79827785 128.25168228 C131.29643032 127.96611459 132.87443141 127.33152426 135 126 C138.58464542 120.77625748 138.71061576 115.28271572 139.1328125 109.15234375 C139.21498016 108.10405899 139.29714783 107.05577423 139.38180542 105.97572327 C139.64129743 102.63042603 139.88342323 99.28413383 140.125 95.9375 C140.29442314 93.7141048 140.46498486 91.49079604 140.63671875 89.26757812 C140.96278755 85.03190219 141.27670705 80.79560279 141.58154297 76.55834961 C141.82251083 73.24934824 142.08976769 69.94776184 142.42236328 66.64672852 C142.53563965 65.48455811 142.64891602 64.3223877 142.765625 63.125 C142.9207959 61.70380859 142.9207959 61.70380859 143.07910156 60.25390625 C143.21424368 57.66310085 143.21424368 57.66310085 140.625 55.0625 C139.91730469 54.43214844 139.91730469 54.43214844 139.1953125 53.7890625 C137.32201354 50.98523596 137.6031809 48.25992499 137.5 44.9375 C137.48584462 39.23015943 137.48584462 39.23015943 134.5 34.6875 C133.675 34.130625 132.85 33.57375 132 33 C131.505 32.505 131.505 32.505 131 32 C128.94443339 31.90586313 126.88559819 31.88257002 124.82788086 31.88647461 C124.18399918 31.88632858 123.54011749 31.88618256 122.87672424 31.8860321 C120.73939697 31.88673115 118.60215587 31.89452309 116.46484375 31.90234375 C114.98653715 31.90420796 113.50822993 31.90563185 112.02992249 31.90663147 C108.13201198 31.91045641 104.23413851 31.92028648 100.33624268 31.93133545 C96.36153667 31.94155008 92.38682471 31.9461292 88.41210938 31.95117188 C80.608056 31.96190878 72.80403318 31.97898491 65 32 C64.71382812 31.08992188 64.42765625 30.17984375 64.1328125 29.2421875 C63.2178077 26.62338066 62.29023872 24.4837312 60.875 22.125 C59.946875 20.578125 59.946875 20.578125 59 19 C54.12570232 18.75189558 49.25510516 18.57097769 44.37597656 18.45068359 C42.71874984 18.40053323 41.0619627 18.3323863 39.40625 18.24560547 C29.86757228 17.39651179 29.86757228 17.39651179 21.61425781 21.12988281 Z " fill="#FDFDFD" transform="translate(0,0)"/>
<path d="M0 0 C1.47583955 0.0001591 2.95168467 0.00585225 4.42749023 0.01586914 C5.20293686 0.01728409 5.97838348 0.01869904 6.77732849 0.02015686 C9.26361893 0.02577194 11.74982059 0.03832693 14.23608398 0.05102539 C15.91772331 0.05603845 17.59936405 0.06060169 19.28100586 0.06469727 C23.41189965 0.07574626 27.54272674 0.09302094 31.67358398 0.11352539 C32.678672 1.90234275 33.67751134 3.69467235 34.67358398 5.48852539 C35.23045898 6.48625977 35.78733398 7.48399414 36.36108398 8.51196289 C37.67358398 11.11352539 37.67358398 11.11352539 37.67358398 13.11352539 C38.89720894 13.10020172 38.89720894 13.10020172 40.14555359 13.08660889 C47.84050619 13.00639629 55.53525553 12.94552744 63.23051739 12.9062767 C67.18657481 12.88541888 71.14228623 12.85713503 75.09814453 12.81176758 C78.91719262 12.76824418 82.73590832 12.7443747 86.55518532 12.73401642 C88.01084436 12.72663659 89.4664856 12.71222519 90.92200279 12.69060516 C92.96418666 12.66148263 95.00500453 12.65757275 97.04736328 12.65942383 C98.20874313 12.65054138 99.37012299 12.64165894 100.56669617 12.63250732 C104.33222211 13.2154978 105.97397232 14.47893296 108.67358398 17.11352539 C110.11389009 19.9941376 109.82878831 22.65401459 109.92358398 25.86352539 C110.08310609 31.68751632 110.08310609 31.68751632 113.29858398 36.17602539 C115.67358398 39.11352539 115.67358398 39.11352539 115.75268555 41.36743164 C115.64923828 42.31489258 115.54579102 43.26235352 115.43920898 44.23852539 C115.32593262 45.4006958 115.21265625 46.56286621 115.09594727 47.76025391 C115.02780823 48.43653839 114.95966919 49.11282288 114.88946533 49.80960083 C114.54897752 53.443348 114.29749176 57.08299953 114.03561401 60.72312927 C113.72253916 65.04976038 113.38804648 69.37465521 113.05395508 73.69970703 C112.88277854 75.94611272 112.71615992 78.19287008 112.55395508 80.43994141 C112.31658494 83.71626764 112.06308985 86.9910073 111.80639648 90.26586914 C111.73752228 91.26593491 111.66864807 92.26600067 111.59768677 93.29637146 C111.17422144 98.48327911 110.69822604 102.70585059 107.67358398 107.11352539 C104.73426037 108.95302357 102.48174503 109.36658705 99.04345703 109.38095093 C97.65554459 109.39374588 97.65554459 109.39374588 96.23959351 109.40679932 C95.23167755 109.40589294 94.2237616 109.40498657 93.18530273 109.40405273 C92.11825104 109.41076996 91.05119934 109.41748718 89.95181274 109.42440796 C86.42152259 109.44341987 82.89142215 109.44731349 79.36108398 109.44946289 C76.91015545 109.4558875 74.45922769 109.4626156 72.00830078 109.46963501 C66.87034323 109.481615 61.73245296 109.48531497 56.59448242 109.48413086 C50.00331701 109.48392738 43.41258138 109.51125635 36.82151794 109.54567528 C31.76011157 109.56788344 26.69880974 109.5719703 21.63735962 109.57091141 C19.20682287 109.57327552 16.77628359 109.58214426 14.34579468 109.59757614 C10.95084251 109.61711684 7.55683175 109.61144491 4.16186523 109.59936523 C2.6499913 109.61622375 2.6499913 109.61622375 1.10757446 109.63342285 C-5.67486358 109.57193009 -5.67486358 109.57193009 -8.85693359 107.3331604 C-11.34002966 103.58247453 -12.55537119 100.88565844 -12.90478516 96.36767578 C-13.01984154 94.95954369 -13.01984154 94.95954369 -13.13722229 93.52296448 C-13.21125778 92.51257614 -13.28529327 91.50218781 -13.36157227 90.46118164 C-13.44515488 89.41006699 -13.52873749 88.35895233 -13.61485291 87.27598572 C-13.88068296 83.90989031 -14.13495198 80.54303477 -14.38891602 77.17602539 C-14.64883106 73.84829226 -14.91099559 70.52074195 -15.1734314 67.19320679 C-15.33949279 65.05183778 -15.5007082 62.91008703 -15.65689087 60.76797485 C-15.97221984 56.45156957 -16.29061401 52.15211402 -16.84545898 47.85913086 C-17.80207547 39.92789006 -17.80207547 39.92789006 -16.28515625 37.33081055 C-14.96601668 35.92463545 -13.64623002 34.51906749 -12.32641602 33.11352539 C-11.73037338 30.09011011 -11.87020022 27.1218439 -11.95141602 24.05102539 C-11.8860714 16.37748795 -9.87238219 0.33692901 0 0 Z M-9.32641602 38.11352539 C-11.69463596 41.6658553 -11.47168241 42.73330689 -11.11938477 46.88305664 C-11.0272168 48.01936523 -10.93504883 49.15567383 -10.84008789 50.32641602 C-10.73245117 51.51428711 -10.62481445 52.7021582 -10.51391602 53.92602539 C-10.41788086 55.10229492 -10.3218457 56.27856445 -10.22290039 57.49047852 C-9.70038904 63.80914024 -9.70038904 63.80914024 -8.81762695 70.08398438 C-8.29351265 73.31645674 -8.05216201 76.48543135 -7.86157227 79.75415039 C-7.78358398 80.98907227 -7.7055957 82.22399414 -7.62524414 83.49633789 C-7.46675501 86.08979645 -7.3131656 88.68355876 -7.16430664 91.27758789 C-7.0850293 92.50735352 -7.00575195 93.73711914 -6.92407227 95.00415039 C-6.82364624 96.69072754 -6.82364624 96.69072754 -6.72119141 98.41137695 C-6.5801006 101.25814628 -6.5801006 101.25814628 -4.32641602 103.11352539 C-2.34331336 103.41662638 -2.34331336 103.41662638 -0.03723145 103.36749268 C1.31302879 103.37595215 1.31302879 103.37595215 2.69056702 103.38458252 C4.17586159 103.37850983 4.17586159 103.37850983 5.69116211 103.37231445 C7.25222939 103.37757141 7.25222939 103.37757141 8.84483337 103.38293457 C12.29823399 103.39176497 15.75143114 103.38589806 19.20483398 103.37915039 C21.59615112 103.38049666 23.98746799 103.38243688 26.37878418 103.38494873 C31.39585978 103.38790177 36.41286428 103.38359654 41.42993164 103.37426758 C47.87325958 103.362873 54.31642092 103.36943151 60.75974274 103.38141251 C65.69925195 103.38862623 70.63872142 103.38634542 75.57823181 103.38115692 C77.95458496 103.37981907 80.33094166 103.38147283 82.70729065 103.38611603 C86.02362684 103.39117322 89.33969009 103.38348228 92.65600586 103.37231445 C93.64620224 103.37636292 94.63639862 103.38041138 95.65660095 103.38458252 C97.00686119 103.37612305 97.00686119 103.37612305 98.38439941 103.36749268 C99.16901299 103.36673862 99.95362656 103.36598457 100.7620163 103.36520767 C102.9137303 103.27921469 102.9137303 103.27921469 104.67358398 101.11352539 C105.1071167 98.46721654 105.1071167 98.46721654 105.23608398 95.35571289 C105.30964111 94.18041016 105.38319824 93.00510742 105.45898438 91.79418945 C105.56521118 89.91038574 105.56521118 89.91038574 105.67358398 87.98852539 C106.17224108 80.07989369 106.67359042 72.21810746 107.73608398 64.36352539 C108.45747785 59.01366851 109.03108059 53.68358343 109.42358398 48.30102539 C109.52155273 46.99520508 109.61952148 45.68938477 109.72045898 44.34399414 C109.96355369 40.960696 109.96355369 40.960696 107.67358398 38.11352539 C105.52969843 37.65860074 105.52969843 37.65860074 103.00476074 37.73257446 C102.02044571 37.72411499 101.03613068 37.71565552 100.02198792 37.7069397 C98.93828415 37.71301239 97.85458038 37.71908508 96.73803711 37.7253418 C95.03066628 37.71745636 95.03066628 37.71745636 93.2888031 37.70941162 C89.51067551 37.69616289 85.73296617 37.70496722 81.95483398 37.71508789 C79.33931395 37.71306857 76.72379447 37.71015832 74.10827637 37.70639038 C68.62039625 37.70092857 63.13263715 37.70813549 57.64477539 37.72241211 C51.29515462 37.73873957 44.94582281 37.73345135 38.59620905 37.71693289 C32.49435235 37.70169279 26.39262402 37.7032877 20.29075623 37.71207809 C17.69111593 37.71408516 15.0914683 37.7116032 12.49183655 37.70463943 C8.86406674 37.69705518 5.23685863 37.70858725 1.60913086 37.7253418 C0.52542709 37.7192691 -0.55827667 37.71319641 -1.67481995 37.7069397 C-3.1512925 37.71962891 -3.1512925 37.71962891 -4.65759277 37.73257446 C-5.51594978 37.73370554 -6.37430679 37.73483662 -7.25867462 37.73600197 C-7.94102928 37.8605847 -8.62338394 37.98516743 -9.32641602 38.11352539 Z " fill="#080808" transform="translate(27.326416015625,18.886474609375)"/>
<path d="M0 0 C9.57 0 19.14 0 29 0 C30.98 3.96 32.96 7.92 35 12 C37.01915527 12.01981934 39.03831055 12.03963867 41.11865234 12.06005859 C47.78038897 12.12688279 54.44196764 12.20452319 61.10352135 12.28752708 C65.14352338 12.33753207 69.18349874 12.38386148 73.22363281 12.421875 C77.12057538 12.45867508 81.01729691 12.50502013 84.91405106 12.55806351 C86.40279906 12.57663565 87.89159449 12.59173314 89.38041306 12.60334396 C91.46135986 12.62015869 93.54179733 12.64918057 95.62255859 12.68115234 C97.40126846 12.70113785 97.40126846 12.70113785 99.21591187 12.7215271 C102 13 102 13 104 15 C104 18.63 104 22.26 104 26 C68.03 26 32.06 26 -5 26 C-5 10 -5 10 0 0 Z " fill="#F9F9F9" transform="translate(27,25)"/>
</svg>
