<?xml version="1.0" encoding="UTF-8"?>
<svg version="1.1" xmlns="http://www.w3.org/2000/svg" width="225" height="225">
<path d="M0 0 C74.25 0 148.5 0 225 0 C225 74.25 225 148.5 225 225 C150.75 225 76.5 225 0 225 C0 150.75 0 76.5 0 0 Z " fill="#FEFEFE" transform="translate(0,0)"/>
<path d="M0 0 C9.14021284 5.94039765 15.60203915 12.60555721 20.75 22.25 C21.25917969 23.19230469 21.76835937 24.13460937 22.29296875 25.10546875 C27.67537549 36.75981162 27.56356741 51.17762887 24.125 63.4375 C18.95900054 77.43627476 10.01705043 88.31945127 -3.25 95.25 C-16.42819214 100.94727361 -32.53236285 103.24519173 -46.3125 98.1875 C-48.31979891 97.26738091 -50.30149806 96.28884948 -52.25 95.25 C-53.69439453 94.48816406 -53.69439453 94.48816406 -55.16796875 93.7109375 C-67.25334835 86.6764131 -75.89715523 75.61337513 -79.86791992 62.15576172 C-83.14316797 48.78244226 -82.78259297 34.50275687 -76.25 22.25 C-75.74210937 21.28707031 -75.23421875 20.32414062 -74.7109375 19.33203125 C-67.05332503 6.17618045 -56.08404537 -0.21939921 -42.45703125 -5.91796875 C-28.35962377 -9.57539603 -12.53896089 -7.00650334 0 0 Z " fill="#FCFCFC" transform="translate(140.25,65.75)"/>
<path d="M0 0 C9.14021284 5.94039765 15.60203915 12.60555721 20.75 22.25 C21.25917969 23.19230469 21.76835937 24.13460937 22.29296875 25.10546875 C27.67537549 36.75981162 27.56356741 51.17762887 24.125 63.4375 C18.95900054 77.43627476 10.01705043 88.31945127 -3.25 95.25 C-16.42819214 100.94727361 -32.53236285 103.24519173 -46.3125 98.1875 C-48.31979891 97.26738091 -50.30149806 96.28884948 -52.25 95.25 C-53.69439453 94.48816406 -53.69439453 94.48816406 -55.16796875 93.7109375 C-67.25334835 86.6764131 -75.89715523 75.61337513 -79.86791992 62.15576172 C-83.14316797 48.78244226 -82.78259297 34.50275687 -76.25 22.25 C-75.74210937 21.28707031 -75.23421875 20.32414062 -74.7109375 19.33203125 C-67.05332503 6.17618045 -56.08404537 -0.21939921 -42.45703125 -5.91796875 C-28.35962377 -9.57539603 -12.53896089 -7.00650334 0 0 Z M-63.953125 15.40234375 C-73.61896099 27.38600776 -76.48723956 39.14021188 -75.25 54.25 C-72.6671673 66.59183125 -66.07010528 77.35884397 -56.25 85.25 C-43.92754554 93.1629487 -32.45776975 96.48900962 -17.80859375 93.5625 C-5.12325165 89.96807013 5.89312227 83.34170659 12.796875 71.83984375 C19.20606516 59.84929021 22.28196592 47.63005994 18.625 34.0625 C13.92994651 20.84278718 6.23097595 10.57748506 -6.4375 4.25 C-26.998774 -5.52541712 -48.40274585 -1.01469666 -63.953125 15.40234375 Z " fill="#070707" transform="translate(140.25,65.75)"/>
<path d="M0 0 C-0.70191743 8.24831434 -1.59772603 16.46614857 -2.5625 24.6875 C-2.70107422 25.87794922 -2.83964844 27.06839844 -2.98242188 28.29492188 C-3.32038698 31.19676015 -3.65960142 34.09844636 -4 37 C-0.57421051 33.82460444 -0.57421051 33.82460444 2 30 C2.66 30 3.32 30 4 30 C2.4846642 35.78582761 0.00490765 39.93412599 -5 43.375 C-7.51555723 44.16111164 -9.3800097 44.33589619 -12 44 C-13.6328125 42.71484375 -13.6328125 42.71484375 -15 41 C-15.57435879 34.10769449 -14.4216398 27.50804 -13.4453125 20.6875 C-12.89083627 16.09604767 -12.80453636 11.61511365 -13 7 C-14.32 6.34 -15.64 5.68 -17 5 C-15.3962669 4.35309078 -13.79199694 3.70751236 -12.1875 3.0625 C-10.84751953 2.52302734 -10.84751953 2.52302734 -9.48046875 1.97265625 C-5.99269742 0.60501048 -3.82239265 0 0 0 Z " fill="#060606" transform="translate(119,99)"/>
<path d="M0 0 C2 3 2 3 1.8125 6.0625 C1 9 1 9 -2 11 C-4.5 11.375 -4.5 11.375 -7 11 C-9.27413905 8.88269813 -9.91522114 7.49656188 -10.4375 4.4375 C-10 2 -10 2 -8.375 0.125 C-5.16017375 -1.39781243 -3.36182684 -1.02316469 0 0 Z " fill="#0D0D0D" transform="translate(119,83)"/>
</svg>
