<?xml version="1.0" encoding="UTF-8"?>
<svg version="1.1" xmlns="http://www.w3.org/2000/svg" width="225" height="225">
<path d="M0 0 C74.25 0 148.5 0 225 0 C225 74.25 225 148.5 225 225 C150.75 225 76.5 225 0 225 C0 150.75 0 76.5 0 0 Z " fill="#FEFEFE" transform="translate(0,0)"/>
<path d="M0 0 C1.52947266 -0.03287109 1.52947266 -0.03287109 3.08984375 -0.06640625 C6.13110618 0.57701458 7.87308977 1.35088465 10.01082993 3.6262207 C12.55010105 8.30139234 11.75083447 14.17235133 11.70947266 19.36132812 C11.71625118 20.7825177 11.72515564 22.20369848 11.73602295 23.62486267 C11.75879571 27.47830473 11.74998885 31.33107665 11.73412752 35.18453026 C11.72145781 39.21943324 11.7332116 43.25427931 11.74105835 47.28918457 C11.75015183 54.06480193 11.73817507 60.84014669 11.71435547 67.61572266 C11.68714454 75.44634297 11.69595893 83.27631236 11.7234875 91.1069169 C11.74618631 97.83321147 11.74937495 104.55931021 11.73629415 111.2856307 C11.72850379 115.30161806 11.72744634 119.31729957 11.74397659 123.33326721 C11.75843363 127.10922741 11.7483785 130.88434944 11.71950531 134.66021919 C11.71290088 136.04490836 11.71478137 137.42966822 11.72581863 138.81432915 C11.81096864 150.58277444 11.81096864 150.58277444 8.70785522 153.88562012 C5.55782034 155.88241438 3.71227745 156.20478346 0 156.125 C-1.53333984 156.12693359 -1.53333984 156.12693359 -3.09765625 156.12890625 C-6.66903393 155.41659571 -7.6926315 154.39758619 -9.9375 151.5625 C-10.44086456 148.78572845 -10.44086456 148.78572845 -10.44543457 145.52770996 C-10.45671387 144.2911113 -10.46799316 143.05451263 -10.47961426 141.78044128 C-10.4718373 140.41286997 -10.46364463 139.04530097 -10.45507812 137.67773438 C-10.46049914 136.2353698 -10.46762169 134.79301077 -10.47631836 133.35066223 C-10.49455746 129.4353281 -10.48748201 125.52041545 -10.47480202 121.60507393 C-10.46467729 117.50831081 -10.47406622 113.41158386 -10.48034668 109.31481934 C-10.48762464 102.43491128 -10.47803156 95.55517496 -10.45898438 88.67529297 C-10.43721524 80.7203557 -10.44426652 72.7658285 -10.46629 64.81090117 C-10.48443984 57.98190408 -10.48700439 51.15303046 -10.47653532 44.32401705 C-10.47029806 40.2449296 -10.46947103 36.16603492 -10.48268127 32.08695984 C-10.49423323 28.25203436 -10.48622667 24.41763772 -10.46310425 20.58276939 C-10.45781356 19.17508002 -10.45933718 17.76734616 -10.46815491 16.35967445 C-10.47907779 14.43889578 -10.46295398 12.51801988 -10.44543457 10.59729004 C-10.44392647 9.52214394 -10.44241837 8.44699783 -10.44086456 7.33927155 C-9.36092939 1.38189296 -5.59693766 -0.00705793 0 0 Z " fill="#060606" transform="translate(143.9375,34.4375)"/>
<path d="M0 0 C0.92941406 0.02191406 1.85882813 0.04382812 2.81640625 0.06640625 C5.46821316 0.44184836 7.18756546 1.00386824 9.4375 2.4375 C10.78287172 5.12824344 10.57580539 7.21769585 10.59140015 10.23178101 C10.60000061 11.46563034 10.60860107 12.69947968 10.61746216 13.97071838 C10.62189748 15.34555012 10.62619583 16.7203823 10.63037109 18.09521484 C10.63827114 19.53727924 10.64654003 20.97934165 10.65515137 22.42140198 C10.68137874 27.16372792 10.69667788 31.90606274 10.7109375 36.6484375 C10.71629654 38.27971019 10.72167405 39.91098283 10.72706985 41.5422554 C10.748698 48.32608716 10.76743614 55.10991652 10.77869225 61.89377403 C10.79494148 71.62349958 10.82814322 81.35282642 10.88509309 91.08240163 C10.92375362 97.91981531 10.94332019 104.75712215 10.94861281 111.59464228 C10.95227114 115.68057915 10.96434293 119.76609084 10.99671555 123.85190964 C11.02672898 127.69501832 11.03313263 131.53744306 11.02133179 135.38064384 C11.02111049 136.79159147 11.02946182 138.20257022 11.04698563 139.61340904 C11.06959732 141.53855721 11.0584224 143.46401411 11.04550171 145.38925171 C11.04881186 146.46699545 11.052122 147.54473919 11.05553246 148.65514183 C10.4375 151.4375 10.4375 151.4375 8.06942177 153.78011513 C5.09518367 155.65306488 3.42518054 156.00489843 -0.0625 156 C-0.9803125 156.02191406 -1.898125 156.04382813 -2.84375 156.06640625 C-5.72601453 155.39967552 -7.46146333 154.53404196 -9.50190353 152.3737793 C-12.05798039 147.70727431 -11.2508254 141.82651135 -11.20947266 136.63867188 C-11.21625118 135.2174823 -11.22515564 133.79630152 -11.23602295 132.37513733 C-11.25879571 128.52169527 -11.24998885 124.66892335 -11.23412752 120.81546974 C-11.22145781 116.78056676 -11.2332116 112.74572069 -11.24105835 108.71081543 C-11.25015183 101.93519807 -11.23817507 95.15985331 -11.21435547 88.38427734 C-11.18714454 80.55365703 -11.19595893 72.72368764 -11.2234875 64.8930831 C-11.24618631 58.16678853 -11.24937495 51.44068979 -11.23629415 44.7143693 C-11.22850379 40.69838194 -11.22744634 36.68270043 -11.24397659 32.66673279 C-11.25843363 28.89077259 -11.2483785 25.11565056 -11.21950531 21.33978081 C-11.21290088 19.95509164 -11.21478137 18.57033178 -11.22581863 17.18567085 C-11.31097169 5.41680481 -11.31097169 5.41680481 -8.19418335 2.10998535 C-5.16774114 0.18662316 -3.55860583 -0.15343085 0 0 Z " fill="#060606" transform="translate(80.5625,34.5625)"/>
</svg>
