<?xml version="1.0" standalone="no"?>
<!DOCTYPE svg PUBLIC "-//W3C//DTD SVG 20010904//EN"
 "http://www.w3.org/TR/2001/REC-SVG-20010904/DTD/svg10.dtd">
<svg version="1.0" xmlns="http://www.w3.org/2000/svg"
 width="189.000000pt" height="267.000000pt" viewBox="0 0 189.000000 267.000000"
 preserveAspectRatio="xMidYMid meet">

<g transform="translate(0.000000,267.000000) scale(0.100000,-0.100000)"
fill="#000000" stroke="none">
<path d="M986 2432 c-2 -4 9 -9 26 -10 17 -1 164 -23 327 -47 475 -72 427 -61
463 -106 33 -42 54 -40 43 4 -16 60 -22 62 -420 116 -376 52 -430 57 -439 43z"/>
<path d="M997 2393 c-3 -5 20 -10 50 -11 31 -1 54 0 52 2 -10 9 -98 16 -102 9z"/>
<path d="M1116 2372 c-3 -5 8 -6 25 -4 16 2 29 6 29 8 0 8 -49 4 -54 -4z"/>
<path d="M1176 2361 c-3 -5 6 -9 22 -8 65 2 107 -3 93 -12 -10 -6 0 -8 29 -4
26 4 41 2 37 -3 -3 -6 9 -8 30 -6 26 3 34 1 28 -7 -5 -9 3 -11 32 -6 29 5 35
4 23 -5 -12 -9 -5 -10 30 -5 33 5 41 3 30 -5 -11 -8 -3 -9 30 -4 34 4 41 3 30
-5 -11 -9 -4 -10 30 -5 35 4 42 3 30 -6 -11 -8 -4 -9 31 -4 40 5 49 3 67 -16
l20 -22 -34 -126 c-75 -284 -79 -297 -95 -300 -9 -2 -24 4 -32 13 -9 8 -22 15
-30 15 -9 0 -23 3 -32 6 -13 5 -14 8 -3 15 9 6 3 9 -17 10 -16 0 -24 3 -17 6
22 9 12 24 -15 21 -22 -3 -28 2 -35 30 -5 17 -13 32 -19 32 -6 0 -7 5 -3 12 4
6 3 8 -4 5 -5 -4 -8 -16 -5 -26 3 -11 -7 -40 -23 -67 -15 -26 -22 -44 -16 -40
7 4 18 3 25 -2 7 -5 52 -23 100 -41 77 -27 94 -30 127 -21 27 7 41 18 49 38
23 58 81 278 76 290 -3 8 0 10 7 6 8 -5 9 1 4 20 -5 20 -4 26 5 20 9 -5 10 1
5 20 -4 15 -3 25 2 22 18 -11 7 76 -12 89 -25 19 -149 40 -226 39 -45 -1 -59
2 -45 8 14 6 8 7 -19 4 -22 -3 -94 3 -160 14 -138 23 -143 23 -150 11z"/>
<path d="M1128 2264 c-5 -4 -8 -16 -8 -28 0 -14 3 -17 11 -9 6 6 9 19 7 28 -1
9 -6 13 -10 9z"/>
<path d="M1708 2263 c7 -3 16 -2 19 1 4 3 -2 6 -13 5 -11 0 -14 -3 -6 -6z"/>
<path d="M1272 2220 c0 -19 2 -27 5 -17 2 9 2 25 0 35 -3 9 -5 1 -5 -18z"/>
<path d="M1082 2210 c-1 -14 -5 -50 -8 -80 -5 -42 -4 -52 5 -44 8 7 11 36 8
80 -1 38 -4 58 -5 44z"/>
<path d="M1191 2194 c0 -11 3 -14 6 -6 3 7 2 16 -1 19 -3 4 -6 -2 -5 -13z"/>
<path d="M1430 2166 c0 -14 5 -26 10 -26 6 0 10 9 10 19 0 11 -4 23 -10 26 -6
4 -10 -5 -10 -19z"/>
<path d="M1341 2173 c0 -5 21 -23 47 -41 l47 -33 -35 33 c-19 18 -34 36 -32
40 1 4 -5 8 -13 8 -8 0 -15 -3 -14 -7z"/>
<path d="M1257 2157 c-11 -29 -9 -43 4 -30 6 6 9 19 7 29 -3 18 -4 18 -11 1z"/>
<path d="M964 2087 c1 -48 6 -71 16 -77 8 -5 62 -25 120 -45 58 -19 134 -47
169 -62 60 -25 64 -25 77 -9 7 10 11 27 9 38 -3 11 -2 18 2 14 8 -7 33 13 33
27 0 7 -4 7 -12 -1 -7 -7 -21 -12 -31 -12 -11 0 -17 -5 -14 -13 3 -7 -3 -13
-13 -13 -10 0 -16 4 -13 9 2 4 -7 5 -22 1 -18 -4 -30 -2 -35 7 -5 7 -21 14
-37 15 -32 3 -104 23 -183 51 l-55 19 -6 60 -6 59 1 -68z"/>
<path d="M1180 2120 c0 -11 4 -20 9 -20 5 0 7 9 4 20 -3 11 -7 20 -9 20 -2 0
-4 -9 -4 -20z"/>
<path d="M1310 2107 c0 -20 26 -57 39 -56 10 0 12 2 4 6 -7 2 -13 10 -13 18 0
7 -7 18 -15 25 -8 7 -15 10 -15 7z"/>
<path d="M1577 2103 c-4 -3 -7 -16 -6 -27 0 -19 1 -19 10 3 10 24 8 36 -4 24z"/>
<path d="M1252 2059 c-2 -19 2 -28 8 -24 12 7 14 55 2 55 -4 0 -9 -14 -10 -31z"/>
<path d="M1430 2066 c0 -28 -41 -66 -73 -67 -18 -1 -24 -3 -14 -6 9 -2 14 -9
11 -14 -3 -6 4 -5 15 3 18 11 23 11 32 -2 9 -13 10 -12 5 2 -3 10 1 21 8 25
14 8 33 73 22 73 -3 0 -6 -6 -6 -14z"/>
<path d="M1548 1977 c-3 -19 -2 -25 4 -19 6 6 8 18 6 28 -3 14 -5 12 -10 -9z"/>
<path d="M1260 1971 c0 -6 5 -13 10 -16 6 -3 10 1 10 9 0 9 -4 16 -10 16 -5 0
-10 -4 -10 -9z"/>
<path d="M1410 1790 c-9 -6 -10 -10 -3 -10 6 0 15 5 18 10 8 12 4 12 -15 0z"/>
<path d="M553 1383 c9 -2 23 -2 30 0 6 3 -1 5 -18 5 -16 0 -22 -2 -12 -5z"/>
<path d="M613 1383 c9 -2 23 -2 30 0 6 3 -1 5 -18 5 -16 0 -22 -2 -12 -5z"/>
<path d="M580 1297 c-32 -81 -33 -95 -5 -93 12 0 22 7 22 14 0 7 -7 10 -15 7
-10 -4 -12 -1 -7 12 4 10 12 32 17 48 6 17 15 36 21 43 6 8 7 16 1 22 -6 6
-19 -15 -34 -53z"/>
<path d="M540 1180 c0 -5 5 -10 10 -10 6 0 10 5 10 10 0 6 -4 10 -10 10 -5 0
-10 -4 -10 -10z"/>
<path d="M757 917 c9 -48 23 -57 23 -15 0 22 -6 38 -15 41 -11 5 -13 0 -8 -26z"/>
<path d="M781 636 c-8 -9 -11 -19 -7 -23 9 -9 29 13 24 27 -2 8 -8 7 -17 -4z"/>
<path d="M0 70 l0 -70 945 0 945 0 0 70 0 70 -945 0 -945 0 0 -70z m266 15
c-4 -10 1 -15 14 -15 11 0 20 -7 20 -15 0 -8 -4 -15 -10 -15 -5 0 -10 6 -10
13 0 8 -3 7 -10 -3 -11 -18 -16 -13 -25 23 -6 21 -4 27 10 27 11 0 15 -5 11
-15z m-138 -16 c34 -1 62 -5 62 -11 0 -5 7 -2 16 6 17 18 34 13 34 -10 0 -17
-20 -19 -21 -1 0 9 -2 10 -6 0 -6 -17 -33 -17 -34 0 0 9 -2 9 -6 0 -2 -7 -16
-13 -29 -13 -14 0 -23 4 -20 8 3 5 -1 9 -9 9 -8 0 -12 -4 -9 -9 8 -12 -10 -10
-24 4 -9 9 -12 9 -12 -1 0 -11 -3 -11 -17 0 -11 10 -14 10 -9 2 4 -7 2 -13 -3
-13 -6 0 -11 5 -11 10 0 17 24 39 31 29 3 -5 33 -10 67 -10z m1222 7 c0 -8 -4
-17 -8 -20 -13 -8 -35 11 -28 23 10 16 36 14 36 -3z m80 -7 c0 -18 -30 -21
-42 -4 -5 6 -8 5 -8 -2 0 -7 -4 -13 -9 -13 -6 0 -9 8 -8 18 2 26 67 27 67 1z
m30 6 c0 6 14 12 30 13 21 2 30 -2 30 -13 0 -11 -11 -15 -40 -15 -31 0 -40 4
-40 18 0 14 2 15 10 2 5 -8 10 -10 10 -5z m77 -7 c-3 -8 -6 -5 -6 6 -1 11 2
17 5 13 3 -3 4 -12 1 -19z m48 4 c0 -18 -20 -15 -23 4 -3 10 1 15 10 12 7 -3
13 -10 13 -16z m46 3 c7 5 151 9 197 6 6 -1 12 -7 12 -13 0 -10 -31 -13 -120
-13 -79 0 -120 4 -120 11 0 16 14 27 18 15 2 -6 8 -9 13 -6z m-1297 -17 c5
-10 7 -10 12 0 3 7 25 12 55 12 40 0 49 -3 49 -17 0 -15 -2 -16 -10 -3 -6 10
-10 11 -10 3 0 -7 -10 -13 -23 -13 -13 0 -29 6 -36 13 -11 10 -13 10 -7 0 5
-9 -2 -13 -23 -13 -21 0 -31 5 -31 15 0 18 16 20 24 3z"/>
</g>
</svg>
