<?xml version="1.0" standalone="no"?>
<!DOCTYPE svg PUBLIC "-//W3C//DTD SVG 20010904//EN"
 "http://www.w3.org/TR/2001/REC-SVG-20010904/DTD/svg10.dtd">
<svg version="1.0" xmlns="http://www.w3.org/2000/svg"
 width="225.000000pt" height="225.000000pt" viewBox="0 0 225.000000 225.000000"
 preserveAspectRatio="xMidYMid meet">

<g transform="translate(0.000000,225.000000) scale(0.100000,-0.100000)"
fill="#000000" stroke="none">
<path d="M943 2145 c-689 -125 -1058 -881 -734 -1502 264 -505 890 -699 1398
-434 564 295 728 1031 343 1542 -229 305 -631 462 -1007 394z m370 -151 c166
-34 305 -112 437 -244 180 -180 262 -377 262 -625 0 -236 -83 -443 -246 -613
-341 -357 -898 -370 -1254 -28 -371 355 -368 936 6 1287 220 206 500 284 795
223z"/>
<path d="M819 1614 l-24 -26 -3 -441 c-2 -303 0 -454 8 -480 14 -49 63 -76
112 -60 48 15 617 388 661 433 43 46 49 94 18 146 -12 20 -123 99 -341 242
-291 192 -326 212 -364 212 -33 0 -48 -6 -67 -26z m369 -310 c239 -157 255
-170 242 -194 -15 -27 -458 -313 -475 -306 -13 5 -15 49 -15 321 0 310 0 315
20 315 11 0 114 -61 228 -136z"/>
</g>
</svg>
