<?xml version="1.0" encoding="UTF-8"?>
<svg version="1.1" xmlns="http://www.w3.org/2000/svg" width="200" height="200">
<path d="M0 0 C66 0 132 0 200 0 C200 66 200 132 200 200 C134 200 68 200 0 200 C0 134 0 68 0 0 Z " fill="#FDFDFD" transform="translate(0,0)"/>
<path d="M0 0 C66 0 132 0 200 0 C200 66 200 132 200 200 C134 200 68 200 0 200 C0 134 0 68 0 0 Z M82 14 C79.47224649 17.79163027 79.77556965 20.80874031 79.875 25.1875 C79.88402344 25.93708984 79.89304687 26.68667969 79.90234375 27.45898438 C79.92587422 29.30612654 79.96174439 31.15310412 80 33 C78.41701974 33.4803318 76.83360022 33.95921612 75.25 34.4375 C74.36828125 34.70433594 73.4865625 34.97117187 72.578125 35.24609375 C71.72734375 35.49488281 70.8765625 35.74367188 70 36 C69.32582031 36.28746094 68.65164062 36.57492188 67.95703125 36.87109375 C66 37 66 37 63.74609375 35.1640625 C62.98425781 34.32617188 62.22242188 33.48828125 61.4375 32.625 C57.93992769 28.81482848 56.08534082 27.38302178 50.9375 26.4375 C41.27240948 27.81822722 33.88397577 37.78911398 28 45 C26.46785112 48.06429776 26.77061452 50.6165642 27 54 C28.86505689 58.38836916 32.15407102 61.15795275 35.671875 64.25390625 C37 66 37 66 36.80078125 67.88671875 C36.53652344 68.58410156 36.27226563 69.28148437 36 70 C35.75121094 70.85078125 35.50242187 71.7015625 35.24609375 72.578125 C34.97925781 73.45984375 34.71242188 74.3415625 34.4375 75.25 C34.16808594 76.14203125 33.89867188 77.0340625 33.62109375 77.953125 C33.41613281 78.62859375 33.21117188 79.3040625 33 80 C31.35451172 79.93039063 31.35451172 79.93039063 29.67578125 79.859375 C28.2213815 79.8218421 26.76695217 79.78544357 25.3125 79.75 C24.59126953 79.71648437 23.87003906 79.68296875 23.12695312 79.6484375 C19.32293727 79.57895776 17.43364366 79.73548322 14.10546875 81.765625 C9.07462608 87.10447844 9.66573997 92.37697412 9.6875 99.375 C9.67138672 100.40367188 9.65527344 101.43234375 9.63867188 102.4921875 C9.634409 109.1081747 10.09028805 113.75716682 14.671875 118.86328125 C18.12787526 120.55069077 21.49696652 120.31680062 25.25 120.1875 C25.99507812 120.17396484 26.74015625 120.16042969 27.5078125 120.14648438 C29.33885416 120.11127204 31.16952169 120.05746851 33 120 C33.483059 121.39449109 33.96125517 122.79066707 34.4375 124.1875 C34.70433594 124.96480469 34.97117187 125.74210937 35.24609375 126.54296875 C35.49488281 127.35378906 35.74367188 128.16460937 36 129 C36.28746094 129.82757813 36.57492188 130.65515625 36.87109375 131.5078125 C37 134 37 134 35.1640625 136.38671875 C34.32617188 137.14597656 33.48828125 137.90523438 32.625 138.6875 C28.06812939 142.65303624 28.06812939 142.65303624 26.75 148.3125 C27.32812274 156.83981043 35.18134499 163.37442305 41.0859375 168.98046875 C44.81591834 172.08387178 48.0177088 174.03602478 52.98046875 173.6640625 C57.74948515 172.09591397 61.35065406 167.99749283 64.48046875 164.20703125 C65.23263672 163.60955078 65.23263672 163.60955078 66 163 C67.859375 163.21484375 67.859375 163.21484375 70 164 C70.85078125 164.24878906 71.7015625 164.49757812 72.578125 164.75390625 C73.45984375 165.02074219 74.3415625 165.28757813 75.25 165.5625 C76.58804688 165.96662109 76.58804688 165.96662109 77.953125 166.37890625 C78.62859375 166.58386719 79.3040625 166.78882813 80 167 C79.96519531 168.02480469 79.93039063 169.04960937 79.89453125 170.10546875 C79.86637965 171.46612936 79.83908096 172.8268078 79.8125 174.1875 C79.78736328 174.86103516 79.76222656 175.53457031 79.73632812 176.22851562 C79.67068108 180.71439691 80.14025346 183.50751128 83 187 C87.53678173 190.98923911 92.65838605 190.41174677 98.375 190.3125 C99.29539062 190.31572266 100.21578125 190.31894531 101.1640625 190.32226562 C110.02585384 190.26583378 110.02585384 190.26583378 117.875 186.5625 C120.5104101 182.9022082 120.31599242 178.64052646 120.5625 174.3125 C120.60568359 173.61060547 120.64886719 172.90871094 120.69335938 172.18554688 C120.7991736 170.45724794 120.90006581 168.7286489 121 167 C122.57725347 166.29866401 124.16211333 165.614417 125.75 164.9375 C126.63171875 164.55464844 127.5134375 164.17179688 128.421875 163.77734375 C131.26465906 162.92020128 132.31786969 162.78924077 135 164 C137.0703125 165.8125 137.0703125 165.8125 139.125 168 C142.3604882 171.41862904 143.74990821 172.79909239 148.5 173.5625 C155.8069992 173.44357958 160.81027675 167.2324656 165.6015625 162.34765625 C171.14185972 156.4215617 171.14185972 156.4215617 173.5 148.8125 C172.70654844 142.76243185 168.62216391 139.41003379 164.26171875 135.40234375 C163.84535156 134.93957031 163.42898437 134.47679687 163 134 C163.25718906 129.49919144 165.37685096 125.16373014 167 121 C168.02480469 120.96261719 169.04960937 120.92523438 170.10546875 120.88671875 C171.46618062 120.82102921 172.82685611 120.75458291 174.1875 120.6875 C174.86103516 120.66494141 175.53457031 120.64238281 176.22851562 120.61914062 C180.60913504 120.384083 183.51087815 119.68541188 187 117 C190.7503081 111.37453784 190.24453339 105.11901194 190.3125 98.5625 C190.34150391 97.63373047 190.37050781 96.70496094 190.40039062 95.74804688 C190.45352797 90.00512614 190.0244386 86.44732182 186 82 C182.50611524 79.29455826 178.47942933 79.77106317 174.25 79.875 C173.20392578 79.88853516 173.20392578 79.88853516 172.13671875 79.90234375 C170.42433042 79.92580112 168.71211996 79.96166896 167 80 C166.5196682 78.41701974 166.04078388 76.83360022 165.5625 75.25 C165.29566406 74.36828125 165.02882812 73.4865625 164.75390625 72.578125 C164.50511719 71.72734375 164.25632813 70.8765625 164 70 C163.72414062 69.31421875 163.44828125 68.6284375 163.1640625 67.921875 C163 66 163 66 164.58203125 64 C165.31808594 63.34 166.05414063 62.68 166.8125 62 C170.68110679 58.49428907 172.59457791 56.02711047 173.625 50.875 C172.07107473 41.24066334 162.22281378 33.89370864 155 28 C151.69683596 26.34841798 148.54103265 26.22481772 145 27 C141.33022725 29.43130592 138.37006209 32.50934565 135.40234375 35.73828125 C134.93957031 36.15464844 134.47679687 36.57101563 134 37 C129.2455134 36.72032432 124.48578293 34.55389866 120 33 C120.04640625 31.90300781 120.0928125 30.80601563 120.140625 29.67578125 C120.1781579 28.2213815 120.21455643 26.76695217 120.25 25.3125 C120.28351563 24.59126953 120.31703125 23.87003906 120.3515625 23.12695312 C120.42027579 19.36490036 120.24834605 17.42207436 118.296875 14.10546875 C112.81771844 9.08290857 106.58876195 9.63381036 99.5625 9.625 C98.53833984 9.60050781 97.51417969 9.57601563 96.45898438 9.55078125 C90.32056631 9.52694273 86.62783337 9.8311875 82 14 Z " fill="#FEFEFE" transform="translate(0,0)"/>
<path d="M0 0 C1.54300781 -0.02416992 1.54300781 -0.02416992 3.1171875 -0.04882812 C9.7331747 -0.053091 14.38216682 0.40278805 19.48828125 4.984375 C21.17569077 8.44037526 20.94180062 11.80946652 20.8125 15.5625 C20.79219727 16.68011719 20.79219727 16.68011719 20.77148438 17.8203125 C20.73627204 19.65135416 20.68246851 21.48202169 20.625 23.3125 C22.01949109 23.795559 23.41566707 24.27375517 24.8125 24.75 C25.58980469 25.01683594 26.36710937 25.28367187 27.16796875 25.55859375 C27.97878906 25.80738281 28.78960937 26.05617188 29.625 26.3125 C30.45257813 26.59996094 31.28015625 26.88742188 32.1328125 27.18359375 C34.7965222 27.59201444 34.7965222 27.59201444 37.01171875 25.4765625 C37.77097656 24.63867188 38.53023438 23.80078125 39.3125 22.9375 C44.29681467 17.52595836 44.29681467 17.52595836 49.125 16.75 C56.43307128 16.86893787 61.46636256 23.08255622 66.2265625 28 C73.49253922 35.93490791 73.49253922 35.93490791 73.9375 40.5625 C73.44716013 46.44657841 70.47972262 49.56169154 66.3125 53.4375 C65.425625 54.38625 64.53875 55.335 63.625 56.3125 C63.80269481 58.24817654 63.80269481 58.24817654 64.625 60.3125 C64.87378906 61.16328125 65.12257812 62.0140625 65.37890625 62.890625 C65.64574219 63.77234375 65.91257813 64.6540625 66.1875 65.5625 C66.45691406 66.45453125 66.72632813 67.3465625 67.00390625 68.265625 C67.20886719 68.94109375 67.41382813 69.6165625 67.625 70.3125 C69.16220703 70.26029297 69.16220703 70.26029297 70.73046875 70.20703125 C72.09112936 70.17887965 73.4518078 70.15158096 74.8125 70.125 C75.48603516 70.09986328 76.15957031 70.07472656 76.85351562 70.04882812 C81.33939691 69.98318108 84.13251128 70.45275346 87.625 73.3125 C91.61423911 77.84928173 91.03674677 82.97088605 90.9375 88.6875 C90.94072266 89.60789062 90.94394531 90.52828125 90.94726562 91.4765625 C90.85353658 103.40571315 90.85353658 103.40571315 87.1875 108.1875 C83.5272082 110.8229101 79.26552646 110.62849242 74.9375 110.875 C74.23560547 110.91818359 73.53371094 110.96136719 72.81054688 111.00585938 C71.08224794 111.1116736 69.3536489 111.21256581 67.625 111.3125 C66.92366401 112.88975347 66.239417 114.47461333 65.5625 116.0625 C65.17964844 116.94421875 64.79679688 117.8259375 64.40234375 118.734375 C63.54520128 121.57715906 63.41424077 122.63036969 64.625 125.3125 C66.43271014 127.44518308 66.43271014 127.44518308 68.625 129.4375 C73.53211176 134.08173077 73.53211176 134.08173077 73.875 138.625 C73.29687726 147.15231043 65.44365501 153.68692305 59.5390625 159.29296875 C55.80908166 162.39637178 52.6072912 164.34852478 47.64453125 163.9765625 C42.81252173 162.38770057 39.38622427 158.23344314 36.03125 154.57421875 C35.5671875 154.15785156 35.103125 153.74148437 34.625 153.3125 C30.12419144 153.56968906 25.78873014 155.68935096 21.625 157.3125 C21.58761719 158.33730469 21.55023438 159.36210937 21.51171875 160.41796875 C21.44602921 161.77868062 21.37958291 163.13935611 21.3125 164.5 C21.28994141 165.17353516 21.26738281 165.84707031 21.24414062 166.54101562 C21.009083 170.92163504 20.31041188 173.82337815 17.625 177.3125 C11.99953784 181.0628081 5.74401194 180.55703339 -0.8125 180.625 C-1.74126953 180.65400391 -2.67003906 180.68300781 -3.62695312 180.71289062 C-9.36987386 180.76602797 -12.92767818 180.3369386 -17.375 176.3125 C-20.08044174 172.81861524 -19.60393683 168.79192933 -19.5 164.5625 C-19.49097656 163.86511719 -19.48195313 163.16773438 -19.47265625 162.44921875 C-19.44919888 160.73683042 -19.41333104 159.02461996 -19.375 157.3125 C-20.95798026 156.8321682 -22.54139978 156.35328388 -24.125 155.875 C-25.00671875 155.60816406 -25.8884375 155.34132812 -26.796875 155.06640625 C-27.64765625 154.81761719 -28.4984375 154.56882813 -29.375 154.3125 C-30.04789063 154.02503906 -30.72078125 153.73757812 -31.4140625 153.44140625 C-33.60750563 153.07549568 -33.60750563 153.07549568 -35.6640625 155.1484375 C-36.43492188 155.98632812 -37.20578125 156.82421875 -38 157.6875 C-43.04227355 163.09831182 -43.04227355 163.09831182 -47.875 163.875 C-55.1819992 163.75607958 -60.18527675 157.5449656 -64.9765625 152.66015625 C-71.93104902 145.14268749 -71.93104902 145.14268749 -72.875 139.125 C-72.08115541 133.071935 -67.99364459 129.72518378 -63.63671875 125.7109375 C-63.01216797 125.01871094 -63.01216797 125.01871094 -62.375 124.3125 C-62.65467568 119.5580134 -64.82110134 114.79828293 -66.375 110.3125 C-67.47199219 110.35890625 -68.56898437 110.4053125 -69.69921875 110.453125 C-71.1536185 110.4906579 -72.60804783 110.52705643 -74.0625 110.5625 C-74.78373047 110.59601563 -75.50496094 110.62953125 -76.24804688 110.6640625 C-80.01009964 110.73277579 -81.95292564 110.56084605 -85.26953125 108.609375 C-90.29209143 103.13021844 -89.74118964 96.90126195 -89.75 89.875 C-89.78673828 88.33875977 -89.78673828 88.33875977 -89.82421875 86.77148438 C-89.84805727 80.63306631 -89.5438125 76.94033337 -85.375 72.3125 C-81.58336973 69.78474649 -78.56625969 70.08806965 -74.1875 70.1875 C-73.43791016 70.19652344 -72.68832031 70.20554687 -71.91601562 70.21484375 C-70.06887346 70.23837422 -68.22189588 70.27424439 -66.375 70.3125 C-65.8946682 68.72951974 -65.41578388 67.14610022 -64.9375 65.5625 C-64.53724609 64.23992187 -64.53724609 64.23992187 -64.12890625 62.890625 C-63.88011719 62.03984375 -63.63132812 61.1890625 -63.375 60.3125 C-62.94380859 59.30123047 -62.94380859 59.30123047 -62.50390625 58.26953125 C-62.13671431 56.0824841 -62.13671431 56.0824841 -64.2109375 54.05859375 C-65.04882812 53.29675781 -65.88671875 52.53492188 -66.75 51.75 C-70.58332962 48.23116956 -72.04062966 46.40231461 -72.875 41.1875 C-71.61753662 31.44215879 -61.54659876 24.3066721 -54.375 18.3125 C-51.31070224 16.78035112 -48.7584358 17.08311452 -45.375 17.3125 C-40.98663084 19.17755689 -38.21704725 22.46657102 -35.12109375 25.984375 C-33.48694049 27.5423218 -33.48694049 27.5423218 -31.48828125 27.11328125 C-30.79089844 26.84902344 -30.09351563 26.58476563 -29.375 26.3125 C-28.52421875 26.06371094 -27.6734375 25.81492187 -26.796875 25.55859375 C-25.91515625 25.29175781 -25.0334375 25.02492188 -24.125 24.75 C-23.23296875 24.48058594 -22.3409375 24.21117188 -21.421875 23.93359375 C-20.74640625 23.72863281 -20.0709375 23.52367188 -19.375 23.3125 C-19.42140625 22.21550781 -19.4678125 21.11851563 -19.515625 19.98828125 C-19.5531579 18.5338815 -19.58955643 17.07945217 -19.625 15.625 C-19.65851563 14.90376953 -19.69203125 14.18253906 -19.7265625 13.43945312 C-19.79604224 9.63543727 -19.63951678 7.74614366 -17.609375 4.41796875 C-12.27052156 -0.61287392 -6.99802588 -0.02176003 0 0 Z M-11.375 9.3125 C-11.57870316 12.40577022 -11.72110352 15.49126629 -11.8046875 18.58984375 C-12.01159641 22.97803683 -12.50738341 25.93429329 -15.375 29.3125 C-18.51953125 31.11328125 -18.51953125 31.11328125 -22.1875 32.625 C-23.39019531 33.13675781 -24.59289062 33.64851563 -25.83203125 34.17578125 C-29.34559139 35.3030646 -31.72621951 35.75400751 -35.375 35.3125 C-37.5703125 34.140625 -37.5703125 34.140625 -39.5 32.5625 C-40.17804687 32.01980469 -40.85609375 31.47710937 -41.5546875 30.91796875 C-43.375 29.3125 -43.375 29.3125 -45.625 26.875 C-46.2025 26.359375 -46.78 25.84375 -47.375 25.3125 C-52.25922436 25.89525187 -54.87508133 29.29813239 -58.1875 32.625 C-59.10305664 33.49801758 -59.10305664 33.49801758 -60.03710938 34.38867188 C-60.60880859 34.95779297 -61.18050781 35.52691406 -61.76953125 36.11328125 C-62.29393799 36.63059814 -62.81834473 37.14791504 -63.35864258 37.6809082 C-64.59199288 39.28670022 -64.59199288 39.28670022 -64.15112305 41.36938477 C-63.06596636 44.08620202 -61.36771726 45.80956264 -59.375 47.9375 C-54.46992016 53.21046083 -54.46992016 53.21046083 -54.14453125 56.98828125 C-54.41902446 60.94749687 -55.51033792 63.85222361 -57.0625 67.5 C-57.56136719 68.71042969 -58.06023438 69.92085937 -58.57421875 71.16796875 C-60.58348647 74.67655989 -61.65112088 75.81980584 -65.375 77.3125 C-68.02060328 77.65011883 -70.47734825 77.86607972 -73.125 77.9375 C-77.61242905 77.70791275 -77.61242905 77.70791275 -81.375 79.3125 C-81.4741657 80.93507544 -81.50579777 82.56189831 -81.5078125 84.1875 C-81.50910156 85.17234375 -81.51039062 86.1571875 -81.51171875 87.171875 C-81.50785156 88.20828125 -81.50398438 89.2446875 -81.5 90.3125 C-81.50386719 91.34890625 -81.50773437 92.3853125 -81.51171875 93.453125 C-81.51042969 94.43796875 -81.50914063 95.4228125 -81.5078125 96.4375 C-81.50668457 97.34757812 -81.50555664 98.25765625 -81.50439453 99.1953125 C-81.61060009 101.2977848 -81.61060009 101.2977848 -80.375 102.3125 C-77.28172978 102.51620316 -74.19623371 102.65860352 -71.09765625 102.7421875 C-66.70814183 102.94915871 -63.78413132 103.48950003 -60.375 106.3125 C-56.61456468 112.08916872 -53.00265457 119.08071627 -54.33984375 126.1171875 C-56.22497891 130.11509678 -59.37385136 133.02678723 -62.5390625 136.05078125 C-63.14492188 136.79714844 -63.75078125 137.54351562 -64.375 138.3125 C-63.84628615 143.18452755 -60.36928912 145.83257261 -57.0625 149.125 C-56.48048828 149.73537109 -55.89847656 150.34574219 -55.29882812 150.97460938 C-54.72970703 151.54630859 -54.16058594 152.11800781 -53.57421875 152.70703125 C-52.79824341 153.49364136 -52.79824341 153.49364136 -52.0065918 154.29614258 C-50.3961837 155.53414254 -50.3961837 155.53414254 -48.28857422 155.07275391 C-45.85416741 154.1055757 -44.59016532 152.78787924 -42.8125 150.875 C-39.58421961 147.43102159 -37.58881098 145.4359384 -32.6875 144.9375 C-27.87150037 145.05237706 -24.47967279 146.97181882 -20.375 149.3125 C-19.26125 149.828125 -18.1475 150.34375 -17 150.875 C-14.375 152.3125 -14.375 152.3125 -12.375 155.3125 C-12.09957149 158.04406938 -11.9111176 160.70026024 -11.8125 163.4375 C-12.04676235 168.26058485 -12.04676235 168.26058485 -10.375 172.3125 C-9.00674531 172.41117669 -7.63352555 172.44329068 -6.26171875 172.4453125 C-5.42576172 172.44660156 -4.58980469 172.44789063 -3.72851562 172.44921875 C-2.40883789 172.44341797 -2.40883789 172.44341797 -1.0625 172.4375 C-0.19431641 172.44136719 0.67386719 172.44523438 1.56835938 172.44921875 C2.40818359 172.44792969 3.24800781 172.44664062 4.11328125 172.4453125 C5.26630737 172.44362061 5.26630737 172.44362061 6.44262695 172.44189453 C8.6207373 172.31275274 10.5316251 171.91162705 12.625 171.3125 C12.63917969 170.21550781 12.65335937 169.11851562 12.66796875 167.98828125 C12.71488708 166.53381302 12.76313438 165.07938723 12.8125 163.625 C12.82120117 162.5431543 12.82120117 162.5431543 12.83007812 161.43945312 C12.99446194 157.43944701 13.30568074 155.72249016 15.83984375 152.46875 C21.09056263 148.40367732 26.7836208 145.84224866 33.3125 144.625 C39.0464739 145.81507006 42.97424742 149.5241847 46.875 153.75 C47.4525 154.265625 48.03 154.78125 48.625 155.3125 C53.50922436 154.72974813 56.12508133 151.32686761 59.4375 148 C60.04787109 147.41798828 60.65824219 146.83597656 61.28710938 146.23632812 C61.85880859 145.66720703 62.43050781 145.09808594 63.01953125 144.51171875 C63.54393799 143.99440186 64.06834473 143.47708496 64.60864258 142.9440918 C65.8469514 141.33307479 65.8469514 141.33307479 65.38525391 139.22167969 C64.42102259 136.80026386 63.11794813 135.61280466 61.1875 133.875 C57.50763373 130.3308665 55.84665805 127.78291468 55.3828125 122.61328125 C55.67857967 118.58226099 57.08757181 115.57624691 58.9375 112.0625 C59.24623047 111.43859375 59.55496094 110.8146875 59.87304688 110.171875 C61.52209639 106.95015301 62.55590245 105.35856504 65.625 103.3125 C68.37917318 103.01183846 71.05145147 102.80324701 73.8125 102.6875 C74.56208984 102.64882812 75.31167969 102.61015625 76.08398438 102.5703125 C77.93059199 102.47621784 79.7777619 102.39327681 81.625 102.3125 C82.45654277 99.40705489 82.75338334 96.81925118 82.7578125 93.80078125 C82.75974609 92.54104492 82.75974609 92.54104492 82.76171875 91.25585938 C82.75785156 90.38767578 82.75398437 89.51949219 82.75 88.625 C82.75386719 87.74521484 82.75773438 86.86542969 82.76171875 85.95898438 C82.76042969 85.12302734 82.75914062 84.28707031 82.7578125 83.42578125 C82.75612061 82.27783081 82.75612061 82.27783081 82.75439453 81.10668945 C82.82004192 79.28940474 82.82004192 79.28940474 81.625 78.3125 C78.31644922 78.17653216 75.01451872 78.06454949 71.703125 78.05859375 C67.73487776 77.91999688 66.03274988 77.62490259 62.78515625 75.13671875 C60.59544288 72.2738566 59.16445783 69.70982931 57.8125 66.375 C57.39355469 65.37597656 56.97460938 64.37695312 56.54296875 63.34765625 C55.56753933 60.12251302 55.34083631 57.66190475 55.625 54.3125 C57.60465803 50.65774672 59.92269583 47.98445119 62.9375 45.1875 C63.824375 44.23875 64.71125 43.29 65.625 42.3125 C65.24079768 37.4780039 61.56405663 34.73743478 58.3125 31.5 C57.73048828 30.88962891 57.14847656 30.27925781 56.54882812 29.65039062 C55.97970703 29.07869141 55.41058594 28.50699219 54.82421875 27.91796875 C54.30690186 27.39356201 53.78958496 26.86915527 53.2565918 26.32885742 C51.65079978 25.09550712 51.65079978 25.09550712 49.56811523 25.53637695 C46.85129798 26.62153364 45.12793736 28.31978274 43 30.3125 C37.72406491 35.22034659 37.72406491 35.22034659 33.45703125 35.578125 C29.16688686 35.28074496 26.05016362 34.02969138 22.3125 32.0625 C21.69310547 31.76214844 21.07371094 31.46179688 20.43554688 31.15234375 C17.97551873 29.8969548 15.96558874 28.74448968 14.2421875 26.55859375 C13.34097812 23.27887605 13.19433569 20.00449549 13.0625 16.625 C13.25953434 12.10390067 13.25953434 12.10390067 11.625 8.3125 C10.00242456 8.2133343 8.37560169 8.18170223 6.75 8.1796875 C5.76515625 8.17839844 4.7803125 8.17710938 3.765625 8.17578125 C2.21101563 8.18158203 2.21101563 8.18158203 0.625 8.1875 C-0.41140625 8.18363281 -1.4478125 8.17976563 -2.515625 8.17578125 C-3.50046875 8.17707031 -4.4853125 8.17835937 -5.5 8.1796875 C-6.86511719 8.18137939 -6.86511719 8.18137939 -8.2578125 8.18310547 C-10.3602848 8.07689991 -10.3602848 8.07689991 -11.375 9.3125 Z " fill="#080808" transform="translate(99.375,9.6875)"/>
<path d="M0 0 C7.96393628 4.6955825 13.58249088 11.91341031 16.53125 20.70703125 C18.74470761 31.53452805 16.77222427 40.91989416 11 50.125 C5.77530734 57.23146755 -2.20994254 62.63602557 -11 64 C-22.36727387 64.94352866 -31.18787155 62.93075199 -40.1796875 55.77734375 C-47.87261791 48.26600612 -50.92152103 39.76598602 -51.3125 29.25 C-51.18903313 19.2615299 -47.06628154 11.01264752 -40 4 C-27.99259517 -4.88662132 -13.44698054 -7.52000131 0 0 Z " fill="#FCFCFC" transform="translate(117,70)"/>
<path d="M0 0 C7.96393628 4.6955825 13.58249088 11.91341031 16.53125 20.70703125 C18.74470761 31.53452805 16.77222427 40.91989416 11 50.125 C5.77530734 57.23146755 -2.20994254 62.63602557 -11 64 C-22.36727387 64.94352866 -31.18787155 62.93075199 -40.1796875 55.77734375 C-47.87261791 48.26600612 -50.92152103 39.76598602 -51.3125 29.25 C-51.18903313 19.2615299 -47.06628154 11.01264752 -40 4 C-27.99259517 -4.88662132 -13.44698054 -7.52000131 0 0 Z M-38.59375 14.97265625 C-43.06520525 21.41900423 -43.927003 27.3416911 -43 35 C-41.01286868 43.12594772 -36.97679526 48.82952741 -29.93359375 53.31640625 C-23.25247446 56.74660524 -16.5777306 57.12939631 -9.32421875 55.33984375 C-2.33486169 52.88985668 2.60772424 49.15986229 6.31640625 42.7109375 C9.49760719 35.72781349 10.49911896 28.72533351 8.15234375 21.328125 C4.84208388 13.92211987 -0.34293675 8.36870013 -7.8125 5.0625 C-19.9955186 1.27169773 -30.78550149 5.08343585 -38.59375 14.97265625 Z " fill="#080808" transform="translate(117,70)"/>
</svg>
