<?xml version="1.0" encoding="UTF-8"?>
<svg version="1.1" xmlns="http://www.w3.org/2000/svg" width="225" height="225">
<path d="M0 0 C74.25 0 148.5 0 225 0 C225 74.25 225 148.5 225 225 C150.75 225 76.5 225 0 225 C0 150.75 0 76.5 0 0 Z " fill="#FDFDFD" transform="translate(0,0)"/>
<path d="M0 0 C5.82457767 4.83639309 11.17516043 10.03939152 16.51538086 15.40185547 C17.44299225 16.32932083 18.37060364 17.25678619 19.32632446 18.21235657 C21.85079988 20.73654695 24.3721962 23.26379232 26.89302135 25.79162741 C29.53507659 28.43996528 32.17999419 31.08544145 34.82460022 33.73123169 C39.82357153 38.7333019 44.81998984 43.73791407 49.81547982 48.74346077 C55.50641176 54.44559874 61.20020856 60.14487239 66.89423931 65.8439157 C78.59933415 77.55944229 90.30085365 89.27853316 102 101 C97.16360691 106.82457767 91.96060848 112.17516043 86.59814453 117.51538086 C85.67067917 118.44299225 84.74321381 119.37060364 83.78764343 120.32632446 C81.26345305 122.85079988 78.73620768 125.3721962 76.20837259 127.89302135 C73.56003472 130.53507659 70.91455855 133.17999419 68.26876831 135.82460022 C63.2666981 140.82357153 58.26208593 145.81998984 53.25653923 150.81547982 C47.55440126 156.50641176 41.85512761 162.20020856 36.1560843 167.89423931 C24.44055771 179.59933415 12.72146684 191.30085365 1 203 C-0.57898443 201.63447518 -2.15796114 200.26894143 -3.73691177 198.90337753 C-5.3289575 197.56438243 -6.94960145 196.25902291 -8.58965683 194.97928238 C-18.75465101 186.95901928 -28.42314768 178.98597416 -30.42497027 165.57643735 C-31.24016783 158.41143976 -31.24405222 151.20882011 -31.15275049 144.00784063 C-31.12566185 140.8447085 -31.16787166 137.68384873 -31.20871627 134.52097809 C-31.30407759 127.03630927 -31.28818582 119.55781156 -31.19775391 112.07324219 C-31.11726273 105.27984284 -31.15968114 98.50091877 -31.32080078 91.70898438 C-32.78381782 28.702735 -32.78381782 28.702735 -17.75875854 12.95169067 C-12.33707498 7.85174568 -6.50222699 3.60610318 0 0 Z " fill="#000000" transform="translate(28,11)"/>
<path d="M0 0 C5.82457767 4.83639309 11.17516043 10.03939152 16.51538086 15.40185547 C17.44299225 16.32932083 18.37060364 17.25678619 19.32632446 18.21235657 C21.85079988 20.73654695 24.3721962 23.26379232 26.89302135 25.79162741 C29.53507659 28.43996528 32.17999419 31.08544145 34.82460022 33.73123169 C39.82357153 38.7333019 44.81998984 43.73791407 49.81547982 48.74346077 C55.50641176 54.44559874 61.20020856 60.14487239 66.89423931 65.8439157 C78.59933415 77.55944229 90.30085365 89.27853316 102 101 C97.16360691 106.82457767 91.96060848 112.17516043 86.59814453 117.51538086 C85.67067917 118.44299225 84.74321381 119.37060364 83.78764343 120.32632446 C81.26345305 122.85079988 78.73620768 125.3721962 76.20837259 127.89302135 C73.56003472 130.53507659 70.91455855 133.17999419 68.26876831 135.82460022 C63.2666981 140.82357153 58.26208593 145.81998984 53.25653923 150.81547982 C47.55440126 156.50641176 41.85512761 162.20020856 36.1560843 167.89423931 C24.44055771 179.59933415 12.72146684 191.30085365 1 203 C-0.1089438 202.05732958 -1.21676064 201.11333333 -2.32411194 200.16879272 C-3.24966936 199.38047845 -3.24966936 199.38047845 -4.1939249 198.57623863 C-6.73733385 196.35649736 -9.11655664 193.99517971 -11.49609375 191.6015625 C-11.97450211 191.1217392 -12.45291046 190.64191589 -12.94581604 190.14755249 C-14.44544879 188.64240542 -15.94153128 187.13378786 -17.4375 185.625 C-18.46525983 184.59221405 -19.49325285 183.55966009 -20.52148438 182.52734375 C-23.01701598 180.02089713 -25.50938082 177.5113292 -28 175 C-26.70701105 172.15625973 -25.34960102 170.10105702 -23.13998413 167.8994751 C-22.55665817 167.31339981 -21.97333221 166.72732452 -21.37232971 166.12348938 C-20.4153141 165.1772596 -20.4153141 165.1772596 -19.43896484 164.21191406 C-18.42903221 163.20154335 -18.42903221 163.20154335 -17.3986969 162.17076111 C-15.17415197 159.94760846 -12.94260871 157.73162207 -10.7109375 155.515625 C-9.16636338 153.97478135 -7.62223049 152.43349528 -6.07852173 150.89178467 C-2.01571302 146.83660963 2.05306622 142.78747676 6.12310791 138.73956299 C10.27579106 134.60734389 14.42281344 130.46945243 18.5703125 126.33203125 C26.70800398 118.21578501 34.85201269 110.10590917 43 102 C38.98788275 97.18916998 34.79404277 92.65327503 30.35205078 88.23852539 C29.71719254 87.60352112 29.08233429 86.96851685 28.42823792 86.31427002 C26.35296051 84.23968296 24.27417599 82.16864927 22.1953125 80.09765625 C20.74635295 78.65056401 19.29761568 77.20324916 17.84909058 75.75572205 C14.0537669 71.96419893 10.25544869 68.17568979 6.45648193 64.38781738 C2.57332841 60.5149311 -1.30696195 56.63917848 -5.1875 52.76367188 C-12.78887983 45.17298592 -20.39342884 37.58548351 -28 30 C-26.1068216 25.87609601 -23.32174632 23.06719396 -20.1171875 19.921875 C-19.54292023 19.35043762 -18.96865295 18.77900024 -18.37698364 18.19024658 C-16.5476419 16.37207055 -14.71145807 14.56098508 -12.875 12.75 C-11.63105226 11.51608671 -10.3875573 10.28171678 -9.14453125 9.046875 C-6.10157633 6.02593257 -3.05246746 3.01132908 0 0 Z " fill="#020202" transform="translate(123,11)"/>
<path d="M0 0 C7.875 6.75 7.875 6.75 10.34739685 9.22714233 C10.91235367 9.79072449 11.47731049 10.35430664 12.05938721 10.93496704 C12.65136902 11.53054413 13.24335083 12.12612122 13.85327148 12.73974609 C14.82040825 13.70666382 14.82040825 13.70666382 15.80708313 14.69311523 C17.91413559 16.80085819 20.01763474 18.91210893 22.12109375 21.0234375 C23.59060627 22.49481727 25.06034135 23.9659748 26.5302887 25.43692017 C30.38099528 29.29142775 34.22868807 33.14892999 38.07574463 37.00708008 C42.00895449 40.95055623 45.9450298 44.89117004 49.88085938 48.83203125 C57.59003446 56.55190099 65.29602623 64.27493989 73 72 C68.96297006 76.84060278 64.73956066 81.4050442 60.27612305 85.85327148 C59.63311752 86.49802933 58.990112 87.14278717 58.32762146 87.80708313 C56.22481031 89.91425722 54.11840877 92.01779818 52.01171875 94.12109375 C50.54280733 95.59067931 49.07404433 97.06041326 47.60542297 98.5302887 C44.53992143 101.59725924 41.47263134 104.66242659 38.40405273 107.72631836 C34.46165456 111.66298943 30.52380315 115.60417344 26.58725262 119.54669094 C23.56174197 122.57580303 20.53386868 125.60254436 17.50525856 128.62855721 C16.05118113 130.08196577 14.59785107 131.53612245 13.14526939 132.99102592 C11.12488254 135.0139357 9.10134711 137.03364065 7.0769043 139.05249023 C6.4727771 139.65864166 5.8686499 140.26479309 5.24621582 140.88931274 C1.11426842 145 1.11426842 145 0 145 C0 97.15 0 49.3 0 0 Z " fill="#FDFDFD" transform="translate(0,40)"/>
</svg>
