<svg version="1.1" id="Layer_1" xmlns="http://www.w3.org/2000/svg" xmlns:xlink="http://www.w3.org/1999/xlink" x="0px" y="0px"
	 width="100%" viewBox="0 0 250 200" enable-background="new 0 0 250 200" xml:space="preserve">
<path fill="#FEFEFE" opacity="1.000000" stroke="none" 
	d="
M1.000000,168.000000 
	C1.000000,112.375061 1.000000,56.750122 1.000000,1.062591 
	C84.229103,1.062591 167.458267,1.062591 251.000000,1.062591 
	C251.000000,56.353836 251.000000,111.708260 250.678497,167.386520 
	C248.130356,164.938675 246.380447,161.486694 243.584503,159.527420 
	C236.247772,154.386246 228.374191,150.016968 220.914551,145.040314 
	C219.477127,144.081360 218.207565,141.790100 218.132614,140.058395 
	C217.823105,132.907684 218.017166,125.735748 217.998428,118.571693 
	C217.982727,112.564972 217.408997,111.977287 211.417358,111.974411 
	C186.093063,111.962250 160.768768,111.969261 135.444473,111.969261 
	C133.653748,111.969261 131.863022,111.969261 129.707962,111.969261 
	C129.707962,107.713272 129.707977,103.919395 129.707977,100.125511 
	C129.707977,96.380997 129.707962,92.636475 129.707962,88.937523 
	C143.343430,88.450584 144.612717,87.399010 146.827621,75.181229 
	C147.582474,75.133415 148.388214,75.051064 149.195206,75.036026 
	C158.953598,74.854156 162.096298,71.733368 162.114807,62.128696 
	C162.133102,52.632118 162.214142,43.133755 162.042221,33.640259 
	C162.005737,31.626698 161.454651,29.318773 160.347382,27.683680 
	C156.619141,22.178253 152.677643,16.797991 148.491745,11.634087 
	C147.311584,10.178204 145.038879,8.850399 143.225494,8.793395 
	C134.237823,8.510867 125.235947,8.638137 116.239525,8.694253 
	C111.869202,8.721513 108.385773,10.547200 106.736542,14.699845 
	C105.853256,16.923895 105.734161,19.451443 105.254250,21.924252 
	C104.544922,21.989719 103.893677,22.085442 103.240158,22.104815 
	C93.035370,22.407335 89.886719,25.620235 89.882523,35.776108 
	C89.876945,49.271290 89.865913,62.766499 89.886574,76.261650 
	C89.900070,85.078270 93.544388,88.758919 102.265030,88.792191 
	C108.866119,88.817383 115.467384,88.797180 122.016739,88.797180 
	C122.016739,96.825081 122.016739,104.231270 122.016739,111.969032 
	C120.773643,111.969032 119.803299,111.969032 118.832947,111.969040 
	C92.675613,111.969116 66.517792,112.051544 40.361404,111.894234 
	C35.587372,111.865532 33.758850,113.519104 33.930458,118.300049 
	C34.187275,125.454941 33.903244,132.627762 34.047100,139.788971 
	C34.098740,142.359695 33.490936,143.920303 31.050865,145.321503 
	C24.282606,149.208130 17.525871,153.200546 11.225817,157.785019 
	C7.377319,160.585495 4.379745,164.555344 1.000000,168.000000 
z"/>
<path fill="#060707" opacity="1.000000" stroke="none" 
	d="
M1.000000,168.468658 
	C4.379745,164.555344 7.377319,160.585495 11.225817,157.785019 
	C17.525871,153.200546 24.282606,149.208130 31.050865,145.321503 
	C33.490936,143.920303 34.098740,142.359695 34.047100,139.788971 
	C33.903244,132.627762 34.187275,125.454941 33.930458,118.300049 
	C33.758850,113.519104 35.587372,111.865532 40.361404,111.894234 
	C66.517792,112.051544 92.675613,111.969116 118.832947,111.969040 
	C119.803299,111.969032 120.773643,111.969032 122.016739,111.969032 
	C122.016739,104.231270 122.016739,96.825081 122.016739,88.797180 
	C115.467384,88.797180 108.866119,88.817383 102.265030,88.792191 
	C93.544388,88.758919 89.900070,85.078270 89.886574,76.261650 
	C89.865913,62.766499 89.876945,49.271290 89.882523,35.776108 
	C89.886719,25.620235 93.035370,22.407335 103.240158,22.104815 
	C103.893677,22.085442 104.544922,21.989719 105.254250,21.924252 
	C105.734161,19.451443 105.853256,16.923895 106.736542,14.699845 
	C108.385773,10.547200 111.869202,8.721513 116.239525,8.694253 
	C125.235947,8.638137 134.237823,8.510867 143.225494,8.793395 
	C145.038879,8.850399 147.311584,10.178204 148.491745,11.634087 
	C152.677643,16.797991 156.619141,22.178253 160.347382,27.683680 
	C161.454651,29.318773 162.005737,31.626698 162.042221,33.640259 
	C162.214142,43.133755 162.133102,52.632118 162.114807,62.128696 
	C162.096298,71.733368 158.953598,74.854156 149.195206,75.036026 
	C148.388214,75.051064 147.582474,75.133415 146.827621,75.181229 
	C144.612717,87.399010 143.343430,88.450584 129.707962,88.937523 
	C129.707962,92.636475 129.707977,96.380997 129.707977,100.125511 
	C129.707977,103.919395 129.707962,107.713272 129.707962,111.969261 
	C131.863022,111.969261 133.653748,111.969261 135.444473,111.969261 
	C160.768768,111.969261 186.093063,111.962250 211.417358,111.974411 
	C217.408997,111.977287 217.982727,112.564972 217.998428,118.571693 
	C218.017166,125.735748 217.823105,132.907684 218.132614,140.058395 
	C218.207565,141.790100 219.477127,144.081360 220.914551,145.040314 
	C228.374191,150.016968 236.247772,154.386246 243.584503,159.527420 
	C246.380447,161.486694 248.130356,164.938675 250.678497,167.855179 
	C251.000000,179.000046 251.000000,190.000107 251.000000,201.000000 
	C248.945602,201.000000 246.970718,201.000000 244.444000,200.533966 
	C243.885956,191.454010 243.715027,182.835739 243.940735,174.227890 
	C244.059204,169.709839 242.334778,166.870178 238.471359,164.575943 
	C229.236389,159.091965 220.205078,153.265015 211.031967,147.137604 
	C210.972397,137.615479 210.972397,128.532288 210.972397,119.412491 
	C183.491257,119.412491 156.781769,119.412491 129.701263,119.412491 
	C129.701263,126.457542 129.476562,133.263763 129.848022,140.037277 
	C129.949951,141.895798 131.409683,144.281937 132.978760,145.352615 
	C139.415527,149.744843 145.930527,154.108978 152.805695,157.748718 
	C160.262497,161.696396 162.948807,167.462357 162.636368,175.643677 
	C162.314240,184.078857 162.843323,192.546539 163.000000,201.000000 
	C160.629440,201.000000 158.258896,201.000000 155.592621,200.551239 
	C155.317642,191.127274 155.262711,182.150925 155.397049,173.177399 
	C155.449295,169.688034 154.294174,167.202011 151.230011,165.349838 
	C143.704956,160.801285 136.238663,156.149048 128.868332,151.354660 
	C126.505508,149.817657 124.686546,149.697433 122.534637,151.980713 
	C115.055313,156.506424 107.784325,160.774078 100.855370,165.539093 
	C98.939354,166.856735 96.937881,169.617142 96.865288,171.779007 
	C96.538643,181.506866 96.891899,191.257553 97.000000,201.000000 
	C94.629440,201.000000 92.258888,201.000000 89.648651,200.570663 
	C89.434998,190.985703 89.504707,181.829926 89.471565,172.674515 
	C89.449738,166.644775 91.981010,162.208008 97.149101,159.080811 
	C104.536438,154.610718 111.872276,150.050507 119.117218,145.354614 
	C120.451050,144.490082 122.096893,142.833115 122.152359,141.482498 
	C122.451225,134.206177 122.293770,126.911087 122.293770,119.531128 
	C95.032700,119.531128 68.197075,119.531128 41.157597,119.531128 
	C41.157597,126.387421 41.341301,132.877518 41.078075,139.349426 
	C40.951424,142.463379 42.143696,144.106003 44.696930,145.629272 
	C52.394176,150.221512 59.927856,155.087128 67.550842,159.804916 
	C71.679825,162.360275 74.032463,165.977997 74.094849,170.853607 
	C74.188568,178.177444 74.320450,185.512268 73.982750,192.821472 
	C73.906418,194.473557 71.966026,196.039536 70.509644,197.492722 
	C69.087334,195.563751 67.239777,193.832947 67.134995,192.002396 
	C66.764435,185.528458 67.329918,178.993225 66.814308,172.539246 
	C66.621216,170.122299 65.011963,167.039108 63.059658,165.680710 
	C55.700359,160.560287 47.895107,156.085434 40.344978,151.231750 
	C38.155018,149.823914 36.428688,149.738480 34.417221,151.882202 
	C27.029671,156.331558 20.038912,160.803986 12.896338,165.019150 
	C9.309345,167.136002 8.009758,169.986801 8.077036,174.065033 
	C8.225103,183.040497 8.045730,192.021347 8.000000,201.000000 
	C5.692500,201.000000 3.385000,201.000000 1.000000,201.000000 
	C1.000000,190.312546 1.000000,179.624924 1.000000,168.468658 
M135.071548,15.900863 
	C129.419006,15.892283 123.762589,16.009380 118.115150,15.835327 
	C113.604256,15.696303 112.186981,17.636789 113.316452,22.125227 
	C117.378731,22.125227 121.361710,22.342333 125.309509,22.062733 
	C129.079971,21.795691 131.458160,23.270691 133.583557,26.312355 
	C137.472565,31.877909 141.751526,37.170975 146.020706,43.432316 
	C146.020706,51.532555 146.020706,59.632793 146.020706,67.663651 
	C154.886780,68.304276 154.953659,68.242393 154.954147,60.187950 
	C154.954407,55.859440 154.532532,51.481003 155.037979,47.212341 
	C156.262680,36.869354 153.469498,28.274145 146.397964,20.431686 
	C143.222733,16.910301 140.534988,15.017372 135.071548,15.900863 
M138.593903,80.002129 
	C138.665451,79.670082 138.737015,79.338036 139.048248,78.095154 
	C139.057465,68.595787 139.143356,59.095352 139.010422,49.597977 
	C138.984222,47.727242 138.555542,45.575417 137.549469,44.059692 
	C134.701965,39.769753 131.594742,35.628536 128.288040,31.681555 
	C127.300484,30.502754 125.336578,29.577389 123.788895,29.528910 
	C116.629662,29.304647 109.457848,29.520935 102.293854,29.393515 
	C98.503777,29.326103 96.943527,30.741194 96.989967,34.695026 
	C97.152412,48.525677 97.170181,62.361000 96.982330,76.191002 
	C96.924995,80.412605 98.628944,81.791054 102.602806,81.744102 
	C112.934113,81.622032 123.268539,81.762245 133.599808,81.638092 
	C135.108948,81.619949 136.607605,80.727982 138.593903,80.002129 
z"/>
<path fill="#FCFCFC" opacity="1.000000" stroke="none" 
	d="
M163.466125,201.000000 
	C162.843323,192.546539 162.314240,184.078857 162.636368,175.643677 
	C162.948807,167.462357 160.262497,161.696396 152.805695,157.748718 
	C145.930527,154.108978 139.415527,149.744843 132.978760,145.352615 
	C131.409683,144.281937 129.949951,141.895798 129.848022,140.037277 
	C129.476562,133.263763 129.701263,126.457542 129.701263,119.412491 
	C156.781769,119.412491 183.491257,119.412491 210.972397,119.412491 
	C210.972397,128.532288 210.972397,137.615479 210.747330,147.287506 
	C210.010498,148.245377 209.498718,148.614426 208.656891,149.077805 
	C206.530411,150.196335 204.733963,151.220520 202.597473,152.071747 
	C201.351425,151.585434 200.075729,150.720001 199.595078,151.041870 
	C192.814713,155.582275 186.001114,160.101868 179.560516,165.097046 
	C178.236954,166.123550 177.982819,169.068420 177.957550,171.137878 
	C177.836029,181.090271 177.961929,191.045670 178.000000,201.000000 
	C173.310745,201.000000 168.621490,201.000000 163.466125,201.000000 
z"/>
<path fill="#FCFCFC" opacity="1.000000" stroke="none" 
	d="
M70.883698,197.645142 
	C71.966026,196.039536 73.906418,194.473557 73.982750,192.821472 
	C74.320450,185.512268 74.188568,178.177444 74.094849,170.853607 
	C74.032463,165.977997 71.679825,162.360275 67.550842,159.804916 
	C59.927856,155.087128 52.394176,150.221512 44.696930,145.629272 
	C42.143696,144.106003 40.951424,142.463379 41.078075,139.349426 
	C41.341301,132.877518 41.157597,126.387421 41.157597,119.531128 
	C68.197075,119.531128 95.032700,119.531128 122.293770,119.531128 
	C122.293770,126.911087 122.451225,134.206177 122.152359,141.482498 
	C122.096893,142.833115 120.451050,144.490082 119.117218,145.354614 
	C111.872276,150.050507 104.536438,154.610718 97.149101,159.080811 
	C91.981010,162.208008 89.449738,166.644775 89.471565,172.674515 
	C89.504707,181.829926 89.434998,190.985703 89.204491,200.570663 
	C83.311958,201.000000 77.623917,201.000000 71.398880,200.667770 
	C70.869164,199.438736 70.876427,198.541946 70.883698,197.645142 
z"/>
<path fill="#6AD7E5" opacity="1.000000" stroke="none" 
	d="
M202.937531,152.244690 
	C204.733963,151.220520 206.530411,150.196335 208.799744,149.388245 
	C216.043335,154.000961 222.962723,158.191422 229.502716,162.907959 
	C231.740494,164.521820 234.397110,167.392303 234.506165,169.795563 
	C234.930115,179.139221 234.407166,188.525848 234.042328,197.610291 
	C229.976639,191.332764 226.184692,185.288086 222.212509,179.364273 
	C217.764832,172.731339 210.934448,172.688446 206.513046,179.251862 
	C203.546982,183.654907 200.678589,188.133224 197.983871,192.705933 
	C196.432281,195.338837 195.313568,198.226837 194.000000,201.000000 
	C191.299988,201.000000 188.599976,201.000000 185.452240,200.531342 
	C185.004852,190.961685 184.723633,181.846222 185.189270,172.769104 
	C185.317139,170.276367 187.162582,167.296799 189.133255,165.603973 
	C192.349411,162.841293 196.278198,160.887924 199.978699,158.716446 
	C202.546448,157.209671 203.991592,155.336700 202.937531,152.244690 
z"/>
<path fill="#6AD8E6" opacity="1.000000" stroke="none" 
	d="
M97.449982,201.000000 
	C96.891899,191.257553 96.538643,181.506866 96.865288,171.779007 
	C96.937881,169.617142 98.939354,166.856735 100.855370,165.539093 
	C107.784325,160.774078 115.055313,156.506424 122.894577,152.043671 
	C130.011475,156.023849 136.499084,159.908554 142.797241,164.079391 
	C144.178024,164.993805 145.731430,166.912064 145.757385,168.393417 
	C145.883820,175.607162 145.518677,182.829529 145.183502,189.710892 
	C138.888565,175.572372 123.633888,171.437790 112.828194,180.681473 
	C106.524391,186.074066 105.304962,193.228210 106.000000,201.000000 
	C103.299988,201.000000 100.599968,201.000000 97.449982,201.000000 
z"/>
<path fill="#6AD7E4" opacity="1.000000" stroke="none" 
	d="
M8.449979,201.000000 
	C8.045730,192.021347 8.225103,183.040497 8.077036,174.065033 
	C8.009758,169.986801 9.309345,167.136002 12.896338,165.019150 
	C20.038912,160.803986 27.029671,156.331558 34.775814,151.974823 
	C41.223915,155.470978 47.077160,158.808762 52.698452,162.499802 
	C56.123577,164.748825 58.429039,167.886276 58.037766,172.425659 
	C57.783436,175.376236 57.855526,178.354950 57.530876,181.078278 
	C55.387970,175.976685 51.551685,174.272507 46.654419,174.276398 
	C40.682899,174.281158 34.709740,174.188065 28.740259,174.298248 
	C21.051184,174.440170 17.603825,177.971588 17.409485,185.638199 
	C17.279678,190.758972 17.136946,195.879410 17.000000,201.000000 
	C14.299986,201.000000 11.599973,201.000000 8.449979,201.000000 
z"/>
<path fill="#080D0F" opacity="1.000000" stroke="none" 
	d="
M17.444162,201.000000 
	C17.136946,195.879410 17.279678,190.758972 17.409485,185.638199 
	C17.603825,177.971588 21.051184,174.440170 28.740259,174.298248 
	C34.709740,174.188065 40.682899,174.281158 46.654419,174.276398 
	C51.551685,174.272507 55.387970,175.976685 57.497280,181.527039 
	C57.809448,188.479034 57.904724,194.739517 58.000000,201.000000 
	C55.958332,201.000000 53.916668,201.000000 51.320900,200.543976 
	C50.746189,195.288666 50.651508,190.488113 50.733826,185.690582 
	C50.780296,182.982422 49.674381,181.643646 46.946365,181.741425 
	C45.298088,181.800522 43.650932,181.890808 41.542568,181.878632 
	C36.932030,181.772873 32.780945,181.811493 28.632811,181.718445 
	C25.908007,181.657333 24.741396,182.768112 24.832933,185.569092 
	C25.000914,190.709061 24.956100,195.855972 25.000000,201.000000 
	C22.629442,201.000000 20.258884,201.000000 17.444162,201.000000 
z"/>
<path fill="#020404" opacity="1.000000" stroke="none" 
	d="
M106.437500,201.000000 
	C105.304962,193.228210 106.524391,186.074066 112.828194,180.681473 
	C123.633888,171.437790 138.888565,175.572372 145.216553,190.104645 
	C145.595764,194.224228 145.797882,197.612122 146.000000,201.000000 
	C143.629440,201.000000 141.258896,201.000000 138.562836,200.619446 
	C140.590683,190.183044 134.932343,182.926758 124.628723,183.199799 
	C116.586311,185.292862 112.983681,189.602859 113.094582,196.451584 
	C113.119110,197.966827 113.034409,199.483810 113.000000,201.000000 
	C110.958336,201.000000 108.916664,201.000000 106.437500,201.000000 
z"/>
<path fill="#050606" opacity="1.000000" stroke="none" 
	d="
M194.444183,201.000000 
	C195.313568,198.226837 196.432281,195.338837 197.983871,192.705933 
	C200.678589,188.133224 203.546982,183.654907 206.513046,179.251862 
	C210.934448,172.688446 217.764832,172.731339 222.212509,179.364273 
	C226.184692,185.288086 229.976639,191.332764 234.086685,197.935638 
	C234.550171,199.364761 234.775085,200.182388 235.000000,201.000000 
	C232.629440,201.000000 230.258896,201.000000 227.440613,200.646667 
	C223.010666,194.005707 219.028427,187.718094 214.514771,180.591385 
	C212.700836,183.364594 211.494644,185.208649 210.080444,187.334366 
	C207.248276,192.077347 204.624130,196.538666 202.000000,201.000000 
	C199.629440,201.000000 197.258896,201.000000 194.444183,201.000000 
z"/>
<path fill="#2ECEDE" opacity="1.000000" stroke="none" 
	d="
M58.463184,201.000000 
	C57.904724,194.739517 57.809448,188.479034 57.747772,181.769806 
	C57.855526,178.354950 57.783436,175.376236 58.037766,172.425659 
	C58.429039,167.886276 56.123577,164.748825 52.698452,162.499802 
	C47.077160,158.808762 41.223915,155.470978 35.109890,151.891602 
	C36.428688,149.738480 38.155018,149.823914 40.344978,151.231750 
	C47.895107,156.085434 55.700359,160.560287 63.059658,165.680710 
	C65.011963,167.039108 66.621216,170.122299 66.814308,172.539246 
	C67.329918,178.993225 66.764435,185.528458 67.134995,192.002396 
	C67.239777,193.832947 69.087334,195.563751 70.509644,197.492722 
	C70.876427,198.541946 70.869164,199.438736 70.930946,200.667770 
	C66.975456,201.000000 62.950912,201.000000 58.463184,201.000000 
z"/>
<path fill="#030404" opacity="1.000000" stroke="none" 
	d="
M202.597473,152.071747 
	C203.991592,155.336700 202.546448,157.209671 199.978699,158.716446 
	C196.278198,160.887924 192.349411,162.841293 189.133255,165.603973 
	C187.162582,167.296799 185.317139,170.276367 185.189270,172.769104 
	C184.723633,181.846222 185.004852,190.961685 185.002258,200.531342 
	C182.958328,201.000000 180.916672,201.000000 178.437500,201.000000 
	C177.961929,191.045670 177.836029,181.090271 177.957550,171.137878 
	C177.982819,169.068420 178.236954,166.123550 179.560516,165.097046 
	C186.001114,160.101868 192.814713,155.582275 199.595078,151.041870 
	C200.075729,150.720001 201.351425,151.585434 202.597473,152.071747 
z"/>
<path fill="#2DCCDC" opacity="1.000000" stroke="none" 
	d="
M235.449982,201.000000 
	C234.775085,200.182388 234.550171,199.364761 234.280914,198.221817 
	C234.407166,188.525848 234.930115,179.139221 234.506165,169.795563 
	C234.397110,167.392303 231.740494,164.521820 229.502716,162.907959 
	C222.962723,158.191422 216.043335,154.000961 209.129791,149.293884 
	C209.498718,148.614426 210.010498,148.245377 210.806900,147.726425 
	C220.205078,153.265015 229.236389,159.091965 238.471359,164.575943 
	C242.334778,166.870178 244.059204,169.709839 243.940735,174.227890 
	C243.715027,182.835739 243.885956,191.454010 243.946106,200.533966 
	C241.299988,201.000000 238.599976,201.000000 235.449982,201.000000 
z"/>
<path fill="#2ECFE0" opacity="1.000000" stroke="none" 
	d="
M146.449982,201.000000 
	C145.797882,197.612122 145.595764,194.224228 145.360580,190.442596 
	C145.518677,182.829529 145.883820,175.607162 145.757385,168.393417 
	C145.731430,166.912064 144.178024,164.993805 142.797241,164.079391 
	C136.499084,159.908554 130.011475,156.023849 123.232010,151.973328 
	C124.686546,149.697433 126.505508,149.817657 128.868332,151.354660 
	C136.238663,156.149048 143.704956,160.801285 151.230011,165.349838 
	C154.294174,167.202011 155.449295,169.688034 155.397049,173.177399 
	C155.262711,182.150925 155.317642,191.127274 155.148468,200.551239 
	C152.299988,201.000000 149.599976,201.000000 146.449982,201.000000 
z"/>
<path fill="#978ECB" opacity="1.000000" stroke="none" 
	d="
M25.467606,201.000000 
	C24.956100,195.855972 25.000914,190.709061 24.832933,185.569092 
	C24.741396,182.768112 25.908007,181.657333 28.632811,181.718445 
	C32.780945,181.811493 36.932030,181.772873 41.545559,182.349304 
	C42.006168,188.938965 42.003086,194.969482 42.000000,201.000000 
	C36.645069,201.000000 31.290140,201.000000 25.467606,201.000000 
z"/>
<path fill="#FA74A5" opacity="1.000000" stroke="none" 
	d="
M113.467606,201.000000 
	C113.034409,199.483810 113.119110,197.966827 113.094582,196.451584 
	C112.983681,189.602859 116.586311,185.292862 124.795845,183.488678 
	C129.552933,188.831253 130.715088,194.660248 130.000000,201.000000 
	C124.645073,201.000000 119.290138,201.000000 113.467606,201.000000 
z"/>
<path fill="#7E74B9" opacity="1.000000" stroke="none" 
	d="
M42.449982,201.000000 
	C42.003086,194.969482 42.006168,188.938965 42.006264,182.437775 
	C43.650932,181.890808 45.298088,181.800522 46.946365,181.741425 
	C49.674381,181.643646 50.780296,182.982422 50.733826,185.690582 
	C50.651508,190.488113 50.746189,195.288666 50.883400,200.543976 
	C48.299988,201.000000 45.599972,201.000000 42.449982,201.000000 
z"/>
<path fill="#F4538F" opacity="1.000000" stroke="none" 
	d="
M130.444168,201.000000 
	C130.715088,194.660248 129.552933,188.831253 125.162537,183.546295 
	C134.932343,182.926758 140.590683,190.183044 138.118652,200.619446 
	C135.629440,201.000000 133.258896,201.000000 130.444168,201.000000 
z"/>
<path fill="#F7CB59" opacity="1.000000" stroke="none" 
	d="
M210.288467,187.052704 
	C211.494644,185.208649 212.700836,183.364594 214.514771,180.591385 
	C219.028427,187.718094 223.010666,194.005707 226.996460,200.646667 
	C224.629440,201.000000 222.258896,201.000000 219.412064,200.648193 
	C216.053345,195.881821 213.170914,191.467270 210.288467,187.052704 
z"/>
<path fill="#FCDE76" opacity="1.000000" stroke="none" 
	d="
M210.080444,187.334366 
	C213.170914,191.467270 216.053345,195.881821 218.967896,200.648193 
	C213.645065,201.000000 208.290146,201.000000 202.467590,201.000000 
	C204.624130,196.538666 207.248276,192.077347 210.080444,187.334366 
z"/>
<path fill="#D9F2F5" opacity="1.000000" stroke="none" 
	d="
M138.111115,80.240349 
	C136.607605,80.727982 135.108948,81.619949 133.599808,81.638092 
	C123.268539,81.762245 112.934113,81.622032 102.602806,81.744102 
	C98.628944,81.791054 96.924995,80.412605 96.982330,76.191002 
	C97.170181,62.361000 97.152412,48.525677 96.989967,34.695026 
	C96.943527,30.741194 98.503777,29.326103 102.293854,29.393515 
	C109.457848,29.520935 116.629662,29.304647 123.788895,29.528910 
	C125.336578,29.577389 127.300484,30.502754 128.288040,31.681555 
	C131.594742,35.628536 134.701965,39.769753 137.549469,44.059692 
	C138.555542,45.575417 138.984222,47.727242 139.010422,49.597977 
	C139.143356,59.095352 139.057465,68.595787 138.723450,78.698380 
	C138.302795,79.614525 138.206955,79.927437 138.111115,80.240349 
M133.568298,58.798756 
	C133.446732,58.532146 133.325150,58.265541 132.864532,57.294407 
	C131.482544,56.564030 130.118317,55.244644 128.715591,55.202396 
	C121.588043,54.987740 114.439224,54.893322 107.325577,55.274246 
	C105.821648,55.354778 104.433563,57.598618 102.992104,58.845695 
	C104.519066,59.972763 106.000198,61.991711 107.580910,62.072945 
	C114.530708,62.430096 121.519341,62.428822 128.469986,62.080399 
	C130.119858,61.997692 131.677322,60.071857 133.568298,58.798756 
M133.115570,71.746918 
	C131.545944,70.627007 130.023331,68.627243 128.398499,68.540436 
	C121.587914,68.176552 114.732559,68.147720 107.926620,68.552010 
	C106.220917,68.653336 104.637955,70.821014 102.998581,72.039032 
	C104.681717,73.196167 106.313568,75.252197 108.057037,75.351654 
	C114.864845,75.739990 121.715866,75.683975 128.531998,75.376274 
	C130.089523,75.305962 131.571991,73.573036 133.115570,71.746918 
M103.007492,38.427299 
	C104.241722,39.838505 105.327225,41.464439 106.821861,42.499683 
	C107.166313,42.738258 109.508621,41.136181 109.845985,40.045399 
	C110.178314,38.970886 109.098404,36.338375 108.698151,36.350628 
	C106.865593,36.406719 105.054115,37.151211 103.007492,38.427299 
z"/>
<path fill="#D6EFF2" opacity="1.000000" stroke="none" 
	d="
M135.992340,16.080601 
	C140.534988,15.017372 143.222733,16.910301 146.397964,20.431686 
	C153.469498,28.274145 156.262680,36.869354 155.037979,47.212341 
	C154.532532,51.481003 154.954407,55.859440 154.954147,60.187950 
	C154.953659,68.242393 154.886780,68.304276 146.020706,67.663651 
	C146.020706,59.632793 146.020706,51.532555 145.981110,42.506645 
	C146.611496,35.204651 146.021622,29.294437 141.249268,24.252541 
	C139.061264,21.940966 137.718445,18.829382 135.992340,16.080601 
z"/>
<path fill="#E7F5F6" opacity="1.000000" stroke="none" 
	d="
M135.531952,15.990732 
	C137.718445,18.829382 139.061264,21.940966 141.249268,24.252541 
	C146.021622,29.294437 146.611496,35.204651 145.904678,42.079323 
	C141.751526,37.170975 137.472565,31.877909 133.583557,26.312355 
	C131.458160,23.270691 129.079971,21.795691 125.309509,22.062733 
	C121.361710,22.342333 117.378731,22.125227 113.316452,22.125227 
	C112.186981,17.636789 113.604256,15.696303 118.115150,15.835327 
	C123.762589,16.009380 129.419006,15.892283 135.531952,15.990732 
z"/>
<path fill="#C4DFE2" opacity="1.000000" stroke="none" 
	d="
M138.352509,80.121239 
	C138.206955,79.927437 138.302795,79.614525 138.603607,79.153793 
	C138.737015,79.338036 138.665451,79.670082 138.352509,80.121239 
z"/>
<path fill="#070808" opacity="1.000000" stroke="none" 
	d="
M133.277298,58.993828 
	C131.677322,60.071857 130.119858,61.997692 128.469986,62.080399 
	C121.519341,62.428822 114.530708,62.430096 107.580910,62.072945 
	C106.000198,61.991711 104.519066,59.972763 102.992111,58.845695 
	C104.433563,57.598618 105.821648,55.354778 107.325577,55.274246 
	C114.439224,54.893322 121.588043,54.987740 128.715591,55.202396 
	C130.118317,55.244644 131.482544,56.564030 132.984497,57.900425 
	C133.162079,58.668903 133.219696,58.831364 133.277298,58.993828 
z"/>
<path fill="#0E0F0F" opacity="1.000000" stroke="none" 
	d="
M133.102295,72.176117 
	C131.571991,73.573036 130.089523,75.305962 128.531998,75.376274 
	C121.715866,75.683975 114.864845,75.739990 108.057037,75.351654 
	C106.313568,75.252197 104.681717,73.196167 102.998581,72.039032 
	C104.637955,70.821014 106.220917,68.653336 107.926620,68.552010 
	C114.732559,68.147720 121.587914,68.176552 128.398499,68.540436 
	C130.023331,68.627243 131.545944,70.627007 133.102295,72.176117 
z"/>
<path fill="#0D0E0E" opacity="1.000000" stroke="none" 
	d="
M103.121277,38.037888 
	C105.054115,37.151211 106.865593,36.406719 108.698151,36.350628 
	C109.098404,36.338375 110.178314,38.970886 109.845985,40.045399 
	C109.508621,41.136181 107.166313,42.738258 106.821861,42.499683 
	C105.327225,41.464439 104.241722,39.838505 103.121277,38.037888 
z"/>
<path fill="#C4DFE2" opacity="1.000000" stroke="none" 
	d="
M133.422791,58.896294 
	C133.219696,58.831364 133.162079,58.668903 133.154022,58.252686 
	C133.325150,58.265541 133.446732,58.532146 133.422791,58.896294 
z"/>
</svg>