<?xml version="1.0" encoding="UTF-8"?>
<svg version="1.1" xmlns="http://www.w3.org/2000/svg" width="225" height="225">
<path d="M0 0 C74.25 0 148.5 0 225 0 C225 74.25 225 148.5 225 225 C150.75 225 76.5 225 0 225 C0 150.75 0 76.5 0 0 Z " fill="#43A047" transform="translate(0,0)"/>
<path d="M0 0 C74.25 0 148.5 0 225 0 C225 74.25 225 148.5 225 225 C150.75 225 76.5 225 0 225 C0 150.75 0 76.5 0 0 Z M43 33 C42.36835937 33.50015625 41.73671875 34.0003125 41.0859375 34.515625 C21.97110026 49.70275596 10.27764144 75.9811811 7.25 99.875 C7.13546808 101.58152561 7.05729848 103.29059539 7 105 C6.97421875 105.63099609 6.9484375 106.26199219 6.921875 106.91210938 C5.93280455 133.93845946 13.82381919 160.55636807 32 181 C32.88365234 182.09634766 32.88365234 182.09634766 33.78515625 183.21484375 C49.46513804 202.15732705 74.33081329 214.65129384 98.5625 217.625 C128.68260663 220.19338119 156.26644508 212.69733678 180 194 C180.81855469 193.36578125 181.63710937 192.7315625 182.48046875 192.078125 C201.70172634 176.15680013 212.81658612 152.16389808 217 128 C217.3403125 126.081875 217.3403125 126.081875 217.6875 124.125 C220.7427712 94.27245432 211.69606076 67.07902006 193 44 C192.46117187 43.29617187 191.92234375 42.59234375 191.3671875 41.8671875 C176.1086328 22.9281774 150.29132238 10.48955408 126.49609375 7.43359375 C95.78811181 4.17557614 66.24543455 12.45752296 43 33 Z " fill="#FEFEFE" transform="translate(0,0)"/>
<path d="M0 0 C3.65529796 0.57691133 5.34959775 1.97463563 7.93359375 4.5703125 C8.66513672 5.3025 9.39667969 6.0346875 10.15039062 6.7890625 C10.90513672 7.55992188 11.65988281 8.33078125 12.4375 9.125 C13.56381836 10.24648438 13.56381836 10.24648438 14.71289062 11.390625 C18.96050053 15.67932876 22.64972689 19.97792063 26 25 C19.12184232 33.3021016 11.33585907 40.72987064 3.67919922 48.30029297 C-4.13816335 55.93511285 -4.13816335 55.93511285 -11.5 64 C-17.31670797 70.84276081 -23.9397153 76.99107813 -30.32080078 83.30029297 C-39.01532029 91.89454061 -39.01532029 91.89454061 -47.19775391 100.97070312 C-51.38632356 105.68695766 -55.95944459 110.06031758 -60.4375 114.5 C-61.4657298 115.52320139 -62.49372626 116.54663733 -63.52148438 117.5703125 C-66.01164338 120.04957999 -68.50492833 122.52567538 -71 125 C-73.88793985 123.69149364 -75.95350175 122.29553519 -78.1887207 120.05419922 C-78.78646805 119.4595285 -79.38421539 118.86485779 -80.00007629 118.25216675 C-80.63555893 117.6094986 -81.27104156 116.96683044 -81.92578125 116.3046875 C-82.59159714 115.63841339 -83.25741302 114.97213928 -83.94340515 114.28567505 C-85.35193182 112.87412939 -86.75802933 111.46015619 -88.16186523 110.04394531 C-90.28911149 107.89858764 -92.42410443 105.76119566 -94.56054688 103.625 C-95.93276149 102.24786382 -97.30452063 100.8702736 -98.67578125 99.4921875 C-99.30519119 98.86166473 -99.93460114 98.23114197 -100.58308411 97.58151245 C-104.37018737 93.75461834 -107.97711084 89.81536179 -111.48858643 85.73379517 C-113.38237565 83.56136357 -115.38209843 81.51934189 -117.4375 79.5 C-118.11683594 78.8296875 -118.79617187 78.159375 -119.49609375 77.46875 C-119.99238281 76.9840625 -120.48867187 76.499375 -121 76 C-119.4152642 72.13671373 -116.94043113 69.71123077 -113.9921875 66.796875 C-113.50670441 66.3142218 -113.02122131 65.8315686 -112.52102661 65.33428955 C-110.97700134 63.80141438 -109.42615176 62.27565996 -107.875 60.75 C-106.82375991 59.70879639 -105.77297343 58.66713459 -104.72265625 57.625 C-102.15366996 55.07800536 -99.57851839 52.53734823 -97 50 C-89.19163068 56.58935291 -82.00184266 63.56297416 -75.5078125 71.46875 C-73.96999474 73.26227841 -73.96999474 73.26227841 -71 74 C-70.65130859 73.57912109 -70.30261719 73.15824219 -69.94335938 72.72460938 C-63.3201913 64.93692823 -55.9424121 57.88111382 -48.67919922 50.69970703 C-40.02138197 42.13812816 -40.02138197 42.13812816 -31.87402344 33.09667969 C-27.28750182 27.96522481 -22.27007048 23.21068487 -17.375 18.375 C-15.15065618 16.17747088 -12.9298079 13.97649157 -10.7109375 11.7734375 C-9.96231949 11.037267 -9.96231949 11.037267 -9.19857788 10.28622437 C-5.9025377 7.01298309 -2.92409739 3.60099029 0 0 Z " fill="#FDFEFD" transform="translate(160,50)"/>
</svg>
