<svg version="1.1" id="Layer_1" xmlns="http://www.w3.org/2000/svg" xmlns:xlink="http://www.w3.org/1999/xlink" x="0px" y="0px"
	 width="100%" viewBox="0 0 1024 1024" enable-background="new 0 0 1024 1024" xml:space="preserve">
<path fill="#000000" opacity="1.000000" stroke="none" 
	d="
M165.292953,447.730133 
	C148.240753,434.067444 131.501495,420.583527 114.673195,407.211700 
	C98.919632,394.693787 98.762459,375.585968 114.489815,363.003662 
	C198.671661,295.655823 282.886017,228.348587 367.037445,160.962708 
	C376.096497,153.708496 385.831024,151.714783 396.355896,156.701004 
	C406.985382,161.736786 411.307709,170.870193 411.310150,182.318176 
	C411.318634,221.981812 411.412994,261.645874 411.221802,301.308563 
	C411.197113,306.420166 412.738739,307.785919 417.749908,307.776672 
	C488.410919,307.646240 559.079956,307.060364 629.731628,307.892212 
	C715.095032,308.897186 788.274292,339.925446 847.709412,401.440643 
	C885.463989,440.516571 909.931091,487.151398 918.840881,540.886597 
	C932.651794,624.180603 913.563293,699.669250 860.936035,765.941162 
	C820.584656,816.754517 768.303955,849.391235 705.200623,864.595276 
	C684.232910,869.647217 662.916992,872.084656 641.375000,872.117798 
	C574.046997,872.221558 506.718658,872.165710 439.390472,872.158020 
	C420.771088,872.155884 409.908813,861.292480 409.896942,842.632996 
	C409.876892,811.135376 409.903015,779.637817 409.905426,748.140198 
	C409.907013,727.330933 419.964172,717.182983 440.891754,717.115479 
	C466.389557,717.033203 491.887939,717.016357 517.385742,717.088074 
	C557.377991,717.200623 597.369873,717.518250 637.362000,717.536804 
	C658.799622,717.546814 679.519104,713.675354 698.586060,703.479492 
	C737.660034,682.584839 761.794373,650.225159 767.283752,606.275146 
	C773.930420,553.059204 752.143860,512.185974 707.452637,483.500000 
	C684.778381,468.946075 659.537048,462.317017 632.536804,462.337463 
	C561.542236,462.391205 490.547668,462.351044 419.553101,462.352783 
	C411.348846,462.352966 411.332275,462.366089 411.329254,470.814728 
	C411.315247,509.978424 411.334869,549.142090 411.291595,588.305786 
	C411.275269,603.089844 402.660431,613.460449 388.214142,615.794434 
	C380.551666,617.032410 373.787720,614.454773 367.795959,609.662415 
	C339.559235,587.077759 311.311859,564.506531 283.071991,541.925842 
	C243.901932,510.605377 204.735184,479.280731 165.292953,447.730133 
z"/>
</svg>